<svg width="2328" height="385" viewBox="0 0 2328 385" fill="none" xmlns="http://www.w3.org/2000/svg">
<path d="M2240.83 304.513C2228.52 304.513 2217.11 303.231 2206.59 300.666C2196.2 297.973 2187.1 294.126 2179.28 289.124C2171.58 283.994 2165.55 277.711 2161.19 270.272C2156.96 262.834 2154.85 254.306 2154.85 244.688C2154.85 243.662 2154.85 242.636 2154.85 241.61C2154.85 240.456 2154.85 239.494 2154.85 238.725H2187.74C2187.74 239.494 2187.74 240.135 2187.74 240.648C2187.74 241.161 2187.74 241.931 2187.74 242.957C2187.74 253.344 2192.55 261.295 2202.17 266.81C2211.78 272.196 2224.93 274.889 2241.6 274.889C2251.86 274.889 2261.03 273.863 2269.11 271.811C2277.19 269.759 2283.54 266.617 2288.15 262.385C2292.9 258.153 2295.27 252.831 2295.27 246.419C2295.27 235.775 2290.27 228.209 2280.27 223.72C2270.39 219.103 2255.58 215.128 2235.83 211.794C2225.44 209.998 2215.57 207.69 2206.21 204.868C2196.84 201.919 2188.51 198.136 2181.2 193.519C2174.02 188.902 2168.31 183.195 2164.08 176.398C2159.97 169.473 2157.92 161.202 2157.92 151.583C2157.92 139.144 2161.58 128.628 2168.89 120.036C2176.33 111.315 2186.33 104.711 2198.9 100.222C2211.46 95.6053 2225.44 93.2969 2240.83 93.2969C2255.71 93.2969 2269.43 95.6694 2282 100.414C2294.57 105.159 2304.63 112.084 2312.2 121.19C2319.89 130.167 2323.74 141.26 2323.74 154.469C2323.74 154.982 2323.74 155.623 2323.74 156.393C2323.74 157.034 2323.74 157.675 2323.74 158.316H2291.04C2291.04 157.675 2291.04 157.162 2291.04 156.777C2291.04 156.393 2291.04 155.944 2291.04 155.431C2291.04 147.993 2288.67 141.901 2283.92 137.156C2279.18 132.283 2273.02 128.692 2265.45 126.384C2257.89 123.947 2249.81 122.729 2241.22 122.729C2233.14 122.729 2225.19 123.626 2217.36 125.422C2209.54 127.089 2203.06 129.91 2197.93 133.886C2192.81 137.861 2190.24 143.312 2190.24 150.237C2190.24 157.162 2192.61 162.741 2197.36 166.973C2202.23 171.076 2209.03 174.475 2217.75 177.168C2226.6 179.733 2236.98 182.105 2248.91 184.285C2259.56 186.209 2269.62 188.646 2279.11 191.595C2288.6 194.417 2296.94 198.072 2304.12 202.56C2311.43 207.049 2317.14 212.755 2321.24 219.681C2325.47 226.477 2327.59 234.813 2327.59 244.688C2327.59 254.691 2325.28 263.411 2320.66 270.85C2316.18 278.288 2309.89 284.507 2301.81 289.509C2293.86 294.51 2284.63 298.229 2274.11 300.666C2263.72 303.231 2252.63 304.513 2240.83 304.513Z" fill="white"/>
<path d="M1974.88 300.666V0H2006.04V184.285L1996.61 180.053L2094.33 96.3747H2136.66L2038.74 182.554L2047.4 165.818L2137.42 300.666H2102.22L2026.24 183.901L2032.97 187.748L2001.23 215.256L2006.04 199.675V300.666H1974.88Z" fill="white"/>
<path d="M1829.49 304.513C1810 304.513 1792.3 300.281 1776.4 291.817C1760.5 283.225 1747.87 270.978 1738.51 255.076C1729.27 239.173 1724.65 220.258 1724.65 198.328C1724.65 176.398 1729.27 157.611 1738.51 141.965C1747.87 126.191 1760.5 114.136 1776.4 105.801C1792.3 97.4648 1810 93.2969 1829.49 93.2969C1844.37 93.2969 1857.64 95.6053 1869.31 100.222C1880.98 104.711 1890.86 110.738 1898.94 118.304C1907.02 125.871 1913.17 134.206 1917.4 143.312C1921.76 152.289 1923.94 161.266 1923.94 170.243C1923.94 170.371 1923.94 170.563 1923.94 170.82C1923.94 171.076 1923.94 171.333 1923.94 171.589H1891.44C1891.44 170.948 1891.37 170.243 1891.24 169.473C1891.11 168.576 1890.99 167.678 1890.86 166.78C1889.83 158.188 1886.56 150.686 1881.05 144.274C1875.53 137.733 1868.35 132.603 1859.5 128.884C1850.65 125.165 1840.59 123.306 1829.3 123.306C1816.61 123.306 1804.81 126.063 1793.91 131.577C1783.13 136.964 1774.41 145.235 1767.74 156.393C1761.2 167.421 1757.93 181.4 1757.93 198.328C1757.93 215.128 1761.2 229.171 1767.74 240.456C1774.28 251.741 1782.94 260.269 1793.71 266.04C1804.61 271.683 1816.48 274.504 1829.3 274.504C1843.15 274.504 1854.57 272.324 1863.54 267.964C1872.52 263.604 1879.25 257.833 1883.74 250.651C1888.36 243.341 1890.92 235.519 1891.44 227.183H1923.94C1923.94 236.416 1921.89 245.65 1917.79 254.883C1913.69 263.988 1907.66 272.324 1899.71 279.891C1891.76 287.329 1881.88 293.292 1870.08 297.781C1858.41 302.269 1844.88 304.513 1829.49 304.513Z" fill="white"/>
<path d="M1639.41 300.666V96.3746H1671.73V300.666H1639.41ZM1655.76 49.4376C1649.73 49.4376 1644.48 47.7704 1639.99 44.4361C1635.63 40.9735 1633.45 36.2927 1633.45 30.3935C1633.45 24.6225 1635.63 20.0699 1639.99 16.7356C1644.48 13.273 1649.73 11.5417 1655.76 11.5417C1661.79 11.5417 1666.98 13.273 1671.34 16.7356C1675.7 20.0699 1677.88 24.6225 1677.88 30.3935C1677.88 36.2927 1675.7 40.9735 1671.34 44.4361C1666.98 47.7704 1661.79 49.4376 1655.76 49.4376Z" fill="white"/>
<path d="M1446.78 300.666H1413.88V16.928H1493.52C1515.45 16.928 1533.66 21.0318 1548.15 29.2393C1562.65 37.3186 1573.48 48.2193 1580.66 61.9413C1587.85 75.6633 1591.44 90.9243 1591.44 107.724C1591.44 124.524 1587.72 140.041 1580.28 154.276C1572.97 168.511 1562 179.989 1547.38 188.71C1532.89 197.302 1514.94 201.598 1493.52 201.598H1446.78V300.666ZM1446.78 189.479L1431.97 172.743H1489.48C1504.87 172.743 1517.63 170.05 1527.76 164.664C1538.02 159.15 1545.65 151.519 1550.66 141.773C1555.78 132.026 1558.35 120.677 1558.35 107.724C1558.35 94.6433 1555.91 83.4862 1551.04 74.2527C1546.17 65.0192 1538.66 57.9658 1528.53 53.0925C1518.4 48.2193 1505.39 45.7827 1489.48 45.7827H1431.97L1446.78 27.1233V189.479Z" fill="white"/>
<path d="M1182.33 216.41V176.975H1317.75L1311.98 186.978C1311.98 185.952 1311.98 184.991 1311.98 184.093C1311.98 183.067 1311.98 182.105 1311.98 181.207C1311.98 173.898 1310.25 166.908 1306.79 160.24C1303.33 153.443 1297.94 147.928 1290.63 143.696C1283.45 139.336 1274.21 137.156 1262.93 137.156C1251.64 137.156 1241.9 139.593 1233.69 144.466C1225.61 149.211 1219.39 156.072 1215.03 165.049C1210.8 174.026 1208.68 184.862 1208.68 197.558C1208.68 210.639 1210.73 221.861 1214.84 231.222C1219.07 240.456 1225.29 247.573 1233.5 252.575C1241.83 257.576 1252.16 260.077 1264.47 260.077C1272.42 260.077 1279.28 259.372 1285.05 257.961C1290.82 256.422 1295.5 254.498 1299.09 252.19C1302.81 249.882 1305.63 247.317 1307.56 244.495C1309.48 241.674 1310.63 238.917 1311.02 236.224H1369.88C1369.11 244.816 1366.16 253.28 1361.03 261.616C1355.9 269.823 1348.79 277.262 1339.68 283.93C1330.58 290.471 1319.48 295.665 1306.4 299.512C1293.45 303.359 1278.64 305.283 1261.97 305.283C1239.4 305.283 1219.71 300.794 1202.91 291.817C1186.11 282.712 1173.09 270.208 1163.86 254.306C1154.63 238.276 1150.01 219.809 1150.01 198.905C1150.01 177.745 1154.69 159.214 1164.05 143.312C1173.54 127.281 1186.69 114.842 1203.49 105.993C1220.42 97.0158 1239.97 92.5273 1262.16 92.5273C1284.86 92.5273 1304.48 97.08 1321.02 106.185C1337.57 115.162 1350.33 127.794 1359.3 144.081C1368.28 160.24 1372.77 179.091 1372.77 200.636C1372.77 203.842 1372.7 206.92 1372.58 209.87C1372.45 212.819 1372.26 215 1372 216.41H1182.33Z" fill="white"/>
<path d="M986.233 300.666V96.3746H1046.06V166.78L1033.75 159.086C1035.16 149.467 1037.72 140.619 1041.44 132.539C1045.16 124.46 1049.97 117.471 1055.87 111.571C1061.77 105.544 1068.76 100.863 1076.84 97.5288C1085.04 94.1945 1094.41 92.5273 1104.92 92.5273C1113.13 92.5273 1119.54 93.1686 1124.16 94.451C1128.9 95.6052 1131.85 96.5029 1133.01 97.1441L1123.2 150.621C1122.04 149.98 1119.48 148.954 1115.5 147.544C1111.53 146.133 1106.4 145.428 1100.11 145.428C1089.85 145.428 1081.26 147.159 1074.34 150.621C1067.41 154.084 1061.83 158.701 1057.6 164.472C1053.5 170.114 1050.55 176.398 1048.75 183.323C1046.96 190.249 1046.06 197.238 1046.06 204.291V300.666H986.233Z" fill="white"/>
<path d="M813.901 304.898C799.025 304.898 785.752 302.525 774.081 297.781C762.54 293.036 753.498 286.174 746.958 277.197C740.418 268.22 737.147 257.32 737.147 244.495C737.147 230.004 741.123 218.206 749.074 209.1C757.025 199.995 767.541 193.07 780.622 188.325C793.831 183.452 808.13 180.246 823.519 178.707C845.962 176.527 861.415 174.539 869.879 172.743C878.471 170.948 882.768 167.806 882.768 163.318C882.768 163.189 882.768 163.061 882.768 162.933C882.768 155.366 879.113 149.403 871.803 145.043C864.621 140.683 854.554 138.503 841.602 138.503C827.879 138.503 817.364 141.003 810.054 146.005C802.872 150.878 799.281 158.38 799.281 168.511H740.61C740.61 152.096 745.034 138.246 753.883 126.961C762.86 115.675 774.979 107.147 790.24 101.376C805.501 95.4769 822.75 92.5273 841.986 92.5273C859.94 92.5273 876.548 95.2846 891.809 100.799C907.07 106.185 919.317 114.329 928.55 125.229C937.912 136.13 942.593 149.98 942.593 166.78C942.593 169.473 942.593 172.166 942.593 174.859C942.593 177.424 942.593 180.053 942.593 182.746V255.076C942.593 260.333 942.721 265.399 942.978 270.272C943.362 275.017 944.132 279.378 945.286 283.353C946.568 287.842 948.172 291.561 950.095 294.51C952.019 297.46 953.622 299.512 954.904 300.666H896.233C895.335 299.768 893.925 297.909 892.001 295.087C890.206 292.266 888.667 288.996 887.384 285.277C885.845 280.788 884.691 276.3 883.922 271.811C883.281 267.195 882.96 261.808 882.96 255.653L895.271 264.117C891.68 272.581 885.845 279.891 877.766 286.046C869.815 292.074 860.325 296.755 849.296 300.089C838.395 303.295 826.597 304.898 813.901 304.898ZM829.867 260.269C839.229 260.269 847.95 258.602 856.029 255.268C864.236 251.805 870.905 246.419 876.035 239.109C881.165 231.799 883.729 222.245 883.729 210.447V189.864L898.541 204.291C890.077 207.369 880.267 209.934 869.11 211.986C858.081 213.909 847.052 215.448 836.023 216.603C822.942 217.885 813.132 220.129 806.591 223.335C800.179 226.413 796.973 231.671 796.973 239.109C796.973 246.163 799.73 251.485 805.245 255.076C810.759 258.538 818.967 260.269 829.867 260.269Z" fill="white"/>
<path d="M573.334 304.513C558.843 304.513 546.916 302.205 537.554 297.588C528.192 292.843 520.818 286.495 515.432 278.544C510.046 270.593 506.263 261.744 504.083 251.998C501.903 242.251 500.812 232.377 500.812 222.374C500.812 217.757 500.812 212.884 500.812 207.754C500.812 202.624 500.812 197.366 500.812 191.98V96.3748H560.446V182.554C560.446 186.914 560.446 191.146 560.446 195.25C560.446 199.354 560.446 203.137 560.446 206.6C560.446 215.192 561.407 223.079 563.331 230.261C565.255 237.442 568.781 243.213 573.911 247.573C579.169 251.934 586.607 254.114 596.225 254.114C605.587 254.114 613.538 251.485 620.079 246.227C626.619 240.841 631.62 233.98 635.083 225.644C638.546 217.308 640.277 208.716 640.277 199.867L657.013 213.525C657.013 226.349 655.025 238.276 651.049 249.305C647.202 260.334 641.688 270.016 634.506 278.352C627.324 286.559 618.54 292.971 608.152 297.588C597.893 302.205 586.287 304.513 573.334 304.513ZM640.277 300.666V96.3748H699.91V300.666H640.277Z" fill="white"/>
<path d="M332.617 305.283C315.56 305.283 299.85 301.243 285.487 293.164C271.124 284.956 259.582 272.837 250.862 256.807C242.141 240.776 237.781 221.027 237.781 197.558C237.781 175.116 242.205 156.072 251.054 140.426C260.031 124.78 271.701 112.918 286.064 104.839C300.556 96.6311 316.073 92.5273 332.617 92.5273C348.775 92.5273 363.523 96.6311 376.86 104.839C390.326 113.046 401.098 124.268 409.178 138.503C417.257 152.609 421.297 168.896 421.297 187.363C421.297 188.004 421.297 188.646 421.297 189.287C421.297 189.8 421.297 190.377 421.297 191.018L395.52 191.403C395.52 191.018 395.52 190.633 395.52 190.249C395.52 189.736 395.52 189.287 395.52 188.902C395.52 179.284 393.211 171.012 388.595 164.087C383.978 157.162 378.015 151.84 370.705 148.121C363.395 144.273 355.764 142.35 347.813 142.35C334.604 142.35 323.191 146.774 313.572 155.623C303.954 164.343 299.145 178.322 299.145 197.558C299.145 216.795 303.954 230.966 313.572 240.071C323.319 249.048 334.733 253.537 347.813 253.537C356.021 253.537 363.78 251.613 371.09 247.766C378.399 243.79 384.299 238.212 388.787 231.03C393.276 223.848 395.52 215.384 395.52 205.638L421.297 206.984C421.297 225.323 417.321 241.931 409.37 256.807C401.547 271.555 390.903 283.353 377.438 292.202C364.1 300.922 349.16 305.283 332.617 305.283ZM395.52 384.729V96.3746H455.345V384.729H395.52Z" fill="white"/>
<path d="M103.877 305.283C83.358 305.283 65.2758 302.013 49.6301 295.472C34.1127 288.932 21.9296 279.185 13.0808 266.233C4.36027 253.152 0 236.929 0 217.564C0 215.513 0 213.653 0 211.986C0 210.19 0 208.267 0 206.215H59.8254C59.8254 208.139 59.8254 209.87 59.8254 211.409C59.8254 212.819 59.8254 214.487 59.8254 216.41C59.8254 229.619 63.5445 239.751 70.9826 246.804C78.4207 253.857 89.4496 257.384 104.069 257.384C118.817 257.384 130.167 255.076 138.118 250.459C146.069 245.714 150.044 237.955 150.044 227.183C150.044 219.616 147.031 212.948 141.003 207.177C135.104 201.406 127.025 196.276 116.765 191.788C106.634 187.171 95.0282 182.875 81.9474 178.899C67.7124 174.411 54.5033 168.511 42.3202 161.202C30.1371 153.892 20.3265 144.594 12.8884 133.309C5.57858 122.023 1.92365 108.109 1.92365 91.5656C1.92365 74.894 6.34804 60.7231 15.1968 49.053C24.0456 37.2546 36.1004 28.2776 51.3614 22.1219C66.6223 15.838 83.871 12.696 103.107 12.696C123.242 12.696 141.003 15.838 156.393 22.1219C171.91 28.2776 184.029 37.5752 192.749 50.0148C201.598 62.3262 206.023 77.7153 206.023 96.1823C206.023 98.2342 206.023 100.158 206.023 101.953C206.023 103.62 206.023 105.544 206.023 107.724H146.39C146.39 106.314 146.39 104.839 146.39 103.3C146.39 101.761 146.39 100.286 146.39 98.8755C146.39 86.4359 142.927 76.8818 136.002 70.2131C129.205 63.5445 118.497 60.2101 103.877 60.2101C89.7702 60.2101 78.8054 62.775 70.9826 67.9047C63.288 73.0344 59.4407 80.9214 59.4407 91.5656C59.4407 99.2602 62.1979 105.801 67.7124 111.187C73.3551 116.573 81.0497 121.382 90.7961 125.614C100.543 129.846 111.636 134.078 124.075 138.31C141.003 144.209 155.751 150.75 168.319 157.931C181.015 164.985 190.826 173.898 197.751 184.67C204.676 195.314 208.139 208.908 208.139 225.451C208.139 242.38 203.778 256.807 195.058 268.733C186.337 280.66 174.09 289.765 158.316 296.049C142.671 302.205 124.524 305.283 103.877 305.283Z" fill="white"/>
</svg>
