<svg width="966" height="143" viewBox="0 0 966 143" fill="none" xmlns="http://www.w3.org/2000/svg">
<path d="M936.193 114.973C932.036 114.973 928.182 114.54 924.631 113.674C921.124 112.764 918.049 111.465 915.408 109.777C912.81 108.045 910.775 105.923 909.303 103.411C907.874 100.9 907.159 98.0205 907.159 94.773C907.159 94.4266 907.159 94.0802 907.159 93.7338C907.159 93.3441 907.159 93.0193 907.159 92.7595H918.266C918.266 93.0193 918.266 93.2358 918.266 93.409C918.266 93.5822 918.266 93.842 918.266 94.1884C918.266 97.6958 919.89 100.38 923.137 102.242C926.385 104.061 930.823 104.97 936.452 104.97C939.916 104.97 943.012 104.624 945.74 103.931C948.468 103.238 950.612 102.177 952.17 100.748C953.773 99.3196 954.574 97.5226 954.574 95.3575C954.574 91.7636 952.885 89.2088 949.507 87.6933C946.173 86.1345 941.172 84.7922 934.504 83.6664C930.996 83.0602 927.662 82.2807 924.501 81.3281C921.34 80.3322 918.526 79.0548 916.058 77.496C913.633 75.9372 911.706 74.0103 910.277 71.7154C908.891 69.3771 908.199 66.5842 908.199 63.3367C908.199 59.1365 909.433 55.5859 911.901 52.6847C914.412 49.7403 917.79 47.5103 922.033 45.9948C926.277 44.4359 930.996 43.6565 936.193 43.6565C941.215 43.6565 945.849 44.4576 950.092 46.0597C954.336 47.6618 957.735 50.0001 960.289 53.0744C962.887 56.1055 964.186 59.851 964.186 64.311C964.186 64.4842 964.186 64.7007 964.186 64.9605C964.186 65.177 964.186 65.3935 964.186 65.61H953.145C953.145 65.3935 953.145 65.2203 953.145 65.0904C953.145 64.9605 953.145 64.8089 953.145 64.6357C953.145 62.1243 952.344 60.0675 950.742 58.4654C949.139 56.8199 947.061 55.6075 944.506 54.8281C941.951 54.0054 939.224 53.594 936.322 53.594C933.594 53.594 930.91 53.8971 928.269 54.5033C925.627 55.0663 923.44 56.0189 921.708 57.3612C919.976 58.7035 919.11 60.5438 919.11 62.882C919.11 65.2203 919.911 67.1038 921.514 68.5328C923.159 69.9184 925.454 71.0659 928.398 71.9752C931.386 72.8412 934.893 73.6423 938.92 74.3784C942.514 75.0279 945.914 75.8506 949.118 76.8465C952.322 77.7991 955.137 79.0332 957.561 80.5487C960.03 82.0642 961.956 83.9911 963.342 86.3294C964.771 88.6243 965.485 91.4388 965.485 94.773C965.485 98.1504 964.706 101.095 963.147 103.606C961.632 106.118 959.51 108.218 956.782 109.907C954.097 111.595 950.98 112.851 947.429 113.674C943.922 114.54 940.176 114.973 936.193 114.973Z" fill="white"/>
<path d="M846.394 113.674V12.1553H856.916V74.3784L853.734 72.9495L886.729 44.6958H901.018L867.958 73.7938L870.881 68.1431L901.278 113.674H889.392L863.736 74.2485L866.009 75.5475L855.292 84.8355L856.916 79.5745V113.674H846.394Z" fill="white"/>
<path d="M797.306 114.973C790.725 114.973 784.749 113.544 779.38 110.686C774.011 107.785 769.745 103.65 766.584 98.2803C763.467 92.9111 761.908 86.5242 761.908 79.1198C761.908 71.7154 763.467 65.3718 766.584 60.0891C769.745 54.7632 774.011 50.6929 779.38 47.8783C784.749 45.0638 790.725 43.6565 797.306 43.6565C802.329 43.6565 806.811 44.4359 810.751 45.9948C814.692 47.5103 818.026 49.5454 820.754 52.1002C823.482 54.6549 825.56 57.4694 826.989 60.5438C828.461 63.5748 829.197 66.6059 829.197 69.6369C829.197 69.6802 829.197 69.7452 829.197 69.8318C829.197 69.9184 829.197 70.005 829.197 70.0916H818.221C818.221 69.8751 818.199 69.6369 818.156 69.3771C818.112 69.074 818.069 68.7709 818.026 68.4678C817.679 65.5667 816.575 63.0336 814.713 60.8686C812.851 58.6602 810.426 56.9282 807.439 55.6725C804.451 54.4167 801.052 53.7889 797.241 53.7889C792.955 53.7889 788.971 54.7199 785.29 56.5818C781.653 58.4004 778.709 61.1933 776.457 64.9605C774.249 68.6843 773.145 73.4041 773.145 79.1198C773.145 84.7922 774.249 89.5336 776.457 93.3441C778.665 97.1545 781.588 100.034 785.225 101.983C788.906 103.888 792.911 104.84 797.241 104.84C801.918 104.84 805.772 104.104 808.803 102.632C811.834 101.16 814.107 99.2113 815.622 96.7865C817.181 94.3183 818.047 91.677 818.221 88.8624H829.197C829.197 91.9801 828.504 95.0977 827.119 98.2154C825.733 101.29 823.698 104.104 821.013 106.659C818.329 109.17 814.995 111.184 811.011 112.699C807.071 114.215 802.502 114.973 797.306 114.973Z" fill="white"/>
<path d="M733.125 113.674V44.6957H744.037V113.674H733.125ZM738.646 28.8477C736.611 28.8477 734.836 28.2848 733.32 27.159C731.848 25.9899 731.112 24.4094 731.112 22.4175C731.112 20.469 731.848 18.9318 733.32 17.806C734.836 16.6369 736.611 16.0523 738.646 16.0523C740.681 16.0523 742.435 16.6369 743.907 17.806C745.379 18.9318 746.116 20.469 746.116 22.4175C746.116 24.4094 745.379 25.9899 743.907 27.159C742.435 28.2848 740.681 28.8477 738.646 28.8477Z" fill="white"/>
<path d="M668.084 113.674H656.978V17.8709H683.867C691.272 17.8709 697.42 19.2565 702.313 22.0278C707.206 24.7557 710.865 28.4363 713.29 33.0694C715.715 37.7026 716.927 42.8554 716.927 48.5278C716.927 54.2002 715.672 59.4396 713.16 64.2459C710.692 69.0523 706.99 72.9277 702.054 75.8722C697.161 78.7733 691.098 80.2239 683.867 80.2239H668.084V113.674ZM668.084 76.132L663.083 70.4812H682.503C687.699 70.4812 692.008 69.5719 695.429 67.7533C698.893 65.8914 701.469 63.315 703.158 60.0241C704.89 56.7333 705.756 52.9012 705.756 48.5278C705.756 44.1111 704.933 40.344 703.288 37.2263C701.642 34.1087 699.109 31.7271 695.688 30.0817C692.268 28.4363 687.873 27.6136 682.503 27.6136H663.083L668.084 21.3133V76.132Z" fill="white"/>
<path d="M578.794 85.2252V71.9102H624.519L622.571 75.2877C622.571 74.9413 622.571 74.6165 622.571 74.3134C622.571 73.967 622.571 73.6422 622.571 73.3391C622.571 70.871 621.986 68.5111 620.817 66.2595C619.648 63.9645 617.829 62.1026 615.361 60.6737C612.936 59.2015 609.819 58.4653 606.008 58.4653C602.198 58.4653 598.907 59.2881 596.136 60.9335C593.408 62.5356 591.308 64.8522 589.835 67.8832C588.406 70.9143 587.692 74.5732 587.692 78.86C587.692 83.2766 588.385 87.0654 589.77 90.2264C591.199 93.344 593.299 95.7472 596.071 97.436C598.885 99.1247 602.371 99.969 606.528 99.969C609.212 99.969 611.529 99.7309 613.477 99.2546C615.426 98.735 617.007 98.0855 618.219 97.3061C619.475 96.5266 620.427 95.6606 621.077 94.708C621.726 93.7554 622.116 92.8244 622.246 91.9151H642.121C641.861 94.8163 640.865 97.6741 639.133 100.489C637.401 103.26 634.998 105.771 631.924 108.023C628.849 110.231 625.104 111.985 620.687 113.284C616.314 114.583 611.312 115.233 605.683 115.233C598.062 115.233 591.416 113.717 585.743 110.686C580.071 107.612 575.676 103.39 572.558 98.0205C569.441 92.6079 567.882 86.3726 567.882 79.3146C567.882 72.17 569.462 65.9131 572.623 60.5438C575.828 55.1312 580.266 50.931 585.938 47.9433C591.654 44.9122 598.257 43.3967 605.748 43.3967C613.413 43.3967 620.038 44.9339 625.623 48.0082C631.209 51.0393 635.518 55.3044 638.549 60.8036C641.58 66.2595 643.095 72.6247 643.095 79.8992C643.095 80.9817 643.074 82.0209 643.03 83.0168C642.987 84.0127 642.922 84.7489 642.835 85.2252H578.794Z" fill="white"/>
<path d="M512.583 113.674V44.6957H532.783V68.4678L528.626 65.8698C529.102 62.6222 529.968 59.6345 531.224 56.9065C532.48 54.1786 534.103 51.8187 536.095 49.8269C538.087 47.7917 540.447 46.2112 543.175 45.0854C545.946 43.9596 549.107 43.3967 552.658 43.3967C555.429 43.3967 557.594 43.6132 559.153 44.0462C560.755 44.4359 561.751 44.739 562.141 44.9555L558.828 63.0119C558.438 62.7954 557.572 62.449 556.23 61.9727C554.888 61.4964 553.156 61.2582 551.034 61.2582C547.57 61.2582 544.669 61.8428 542.331 63.0119C539.992 64.181 538.109 65.7399 536.68 67.6884C535.294 69.5936 534.298 71.7154 533.692 74.0536C533.086 76.3918 532.783 78.7517 532.783 81.1333V113.674H512.583Z" fill="white"/>
<path d="M454.396 115.103C449.373 115.103 444.892 114.302 440.951 112.699C437.054 111.097 434.002 108.781 431.793 105.75C429.585 102.719 428.481 99.0381 428.481 94.708C428.481 89.815 429.823 85.8314 432.508 82.757C435.192 79.6827 438.743 77.3444 443.16 75.7423C447.62 74.0969 452.448 73.0144 457.644 72.4948C465.221 71.7587 470.439 71.0875 473.297 70.4813C476.198 69.8751 477.649 68.8142 477.649 67.2987C477.649 67.2554 477.649 67.2121 477.649 67.1688C477.649 64.614 476.415 62.6006 473.946 61.1283C471.522 59.6561 468.122 58.92 463.749 58.92C459.116 58.92 455.565 59.7644 453.097 61.4531C450.672 63.0985 449.46 65.6316 449.46 69.0524H429.65C429.65 63.5099 431.144 58.8334 434.131 55.0229C437.162 51.2125 441.254 48.333 446.407 46.3845C451.56 44.3926 457.384 43.3967 463.879 43.3967C469.941 43.3967 475.549 44.3277 480.701 46.1896C485.854 48.0082 489.989 50.7578 493.107 54.4384C496.268 58.1189 497.848 62.7954 497.848 68.4678C497.848 69.3771 497.848 70.2864 497.848 71.1957C497.848 72.0618 497.848 72.9494 497.848 73.8587V98.2803C497.848 100.056 497.892 101.766 497.978 103.411C498.108 105.014 498.368 106.486 498.758 107.828C499.191 109.344 499.732 110.599 500.381 111.595C501.031 112.591 501.572 113.284 502.005 113.674H482.195C481.892 113.371 481.416 112.743 480.766 111.79C480.16 110.838 479.64 109.733 479.207 108.478C478.688 106.962 478.298 105.447 478.038 103.931C477.822 102.372 477.714 100.554 477.714 98.4752L481.87 101.333C480.658 104.191 478.688 106.659 475.96 108.737C473.275 110.773 470.071 112.353 466.347 113.479C462.667 114.561 458.683 115.103 454.396 115.103ZM459.787 100.034C462.948 100.034 465.893 99.4711 468.62 98.3453C471.392 97.1762 473.643 95.3575 475.375 92.8894C477.107 90.4212 477.973 87.1954 477.973 83.2117V76.2619L482.975 81.1333C480.117 82.1725 476.804 83.0385 473.037 83.7313C469.313 84.3808 465.589 84.9004 461.866 85.2901C457.449 85.7231 454.136 86.4809 451.928 87.5634C449.763 88.6026 448.68 90.3779 448.68 92.8894C448.68 95.2709 449.611 97.0679 451.473 98.2803C453.335 99.4494 456.107 100.034 459.787 100.034Z" fill="white"/>
<path d="M373.17 114.973C368.277 114.973 364.25 114.193 361.089 112.635C357.928 111.032 355.438 108.889 353.619 106.204C351.801 103.52 350.523 100.532 349.787 97.2412C349.051 93.9503 348.683 90.6162 348.683 87.2387C348.683 85.6799 348.683 84.0345 348.683 82.3024C348.683 80.5704 348.683 78.7951 348.683 76.9765V44.6958H368.818V73.7939C368.818 75.2661 368.818 76.695 368.818 78.0806C368.818 79.4662 368.818 80.7436 368.818 81.9127C368.818 84.8139 369.143 87.4769 369.792 89.9017C370.442 92.3266 371.632 94.2751 373.365 95.7473C375.14 97.2195 377.651 97.9556 380.899 97.9556C384.06 97.9556 386.744 97.068 388.953 95.2926C391.161 93.474 392.85 91.1574 394.019 88.3429C395.188 85.5283 395.773 82.6272 395.773 79.6395L401.423 84.251C401.423 88.581 400.752 92.608 399.41 96.3319C398.111 100.056 396.249 103.325 393.824 106.139C391.399 108.911 388.433 111.076 384.926 112.635C381.462 114.193 377.543 114.973 373.17 114.973ZM395.773 113.674V44.6958H415.907V113.674H395.773Z" fill="white"/>
<path d="M291.893 115.233C286.134 115.233 280.829 113.869 275.98 111.141C271.13 108.369 267.233 104.277 264.288 98.8649C261.344 93.4523 259.872 86.784 259.872 78.86C259.872 71.2824 261.366 64.8522 264.353 59.5695C267.384 54.2868 271.325 50.2815 276.175 47.5536C281.068 44.7823 286.307 43.3967 291.893 43.3967C297.349 43.3967 302.328 44.7823 306.831 47.5536C311.378 50.3248 315.015 54.1136 317.743 58.92C320.471 63.6831 321.835 69.1823 321.835 75.4176C321.835 75.6341 321.835 75.8506 321.835 76.0671C321.835 76.2403 321.835 76.4351 321.835 76.6516L313.132 76.7815C313.132 76.6516 313.132 76.5217 313.132 76.3918C313.132 76.2186 313.132 76.0671 313.132 75.9372C313.132 72.6896 312.352 69.8967 310.793 67.5585C309.235 65.2203 307.221 63.4233 304.753 62.1676C302.285 60.8685 299.708 60.219 297.024 60.219C292.564 60.219 288.71 61.7129 285.463 64.7006C282.215 67.6451 280.591 72.3649 280.591 78.86C280.591 85.3551 282.215 90.1398 285.463 93.2141C288.753 96.2452 292.607 97.7607 297.024 97.7607C299.795 97.7607 302.415 97.1112 304.883 95.8122C307.351 94.4699 309.343 92.5863 310.858 90.1614C312.374 87.7366 313.132 84.8788 313.132 81.5879L321.835 82.0426C321.835 88.2346 320.493 93.842 317.808 98.8649C315.167 103.844 311.573 107.828 307.026 110.816C302.523 113.76 297.478 115.233 291.893 115.233ZM313.132 142.057V44.6957H333.331V142.057H313.132Z" fill="white"/>
<path d="M214.66 115.233C207.732 115.233 201.626 114.128 196.344 111.92C191.104 109.712 186.991 106.421 184.003 102.047C181.058 97.6308 179.586 92.1533 179.586 85.6149C179.586 84.9221 179.586 84.2942 179.586 83.7313C179.586 83.1251 179.586 82.4756 179.586 81.7828H199.786C199.786 82.4323 199.786 83.0168 199.786 83.5364C199.786 84.0127 199.786 84.5756 199.786 85.2252C199.786 89.6851 201.042 93.1059 203.553 95.4874C206.065 97.869 209.788 99.0597 214.725 99.0597C219.704 99.0597 223.536 98.2803 226.221 96.7215C228.906 95.1194 230.248 92.4997 230.248 88.8624C230.248 86.3077 229.23 84.056 227.195 82.1075C225.203 80.159 222.476 78.4269 219.011 76.9114C215.591 75.3526 211.672 73.902 207.255 72.5597C202.449 71.0442 197.989 69.0524 193.875 66.5842C189.762 64.1161 186.449 60.9768 183.938 57.1663C181.47 53.3559 180.236 48.6577 180.236 43.0719C180.236 37.4429 181.73 32.6581 184.717 28.7178C187.705 24.7341 191.775 21.703 196.928 19.6246C202.081 17.5029 207.905 16.442 214.4 16.442C221.198 16.442 227.195 17.5029 232.391 19.6246C237.631 21.703 241.723 24.8423 244.667 29.0425C247.655 33.1994 249.149 38.3955 249.149 44.6308C249.149 45.3236 249.149 45.9731 249.149 46.5793C249.149 47.1422 249.149 47.7917 249.149 48.5278H229.014C229.014 48.0515 229.014 47.5536 229.014 47.034C229.014 46.5143 229.014 46.0164 229.014 45.5401C229.014 41.3399 227.845 38.114 225.507 35.8624C223.212 33.6107 219.596 32.4849 214.66 32.4849C209.897 32.4849 206.194 33.3509 203.553 35.083C200.955 36.815 199.656 39.478 199.656 43.0719C199.656 45.67 200.587 47.8783 202.449 49.6969C204.354 51.5156 206.952 53.1394 210.243 54.5683C213.534 55.9972 217.279 57.4261 221.48 58.855C227.195 60.8469 232.175 63.0552 236.418 65.48C240.705 67.8616 244.018 70.871 246.356 74.5082C248.694 78.1022 249.863 82.6921 249.863 88.2779C249.863 93.9935 248.391 98.8649 245.447 102.892C242.502 106.919 238.367 109.993 233.041 112.115C227.758 114.193 221.631 115.233 214.66 115.233Z" fill="white"/>
<path d="M111.033 123.313C110.744 133.774 102.176 142.149 91.6516 142.149H20.3848C9.66745 142.149 0.97168 133.453 0.97168 122.736V51.5009C0.97168 41.8104 8.06307 33.7885 17.3364 32.3445C17.3364 32.5371 17.3364 32.7296 17.3364 32.89V104.157C17.3364 114.874 26.0322 123.57 36.7495 123.57H108.016C109.011 123.538 110.038 123.474 111.033 123.313Z" fill="white"/>
<path d="M143.762 19.4131V90.68C143.762 100.659 136.222 108.906 126.499 109.965C127.077 108.136 127.398 106.178 127.398 104.157V32.89C127.398 22.1727 118.702 13.4769 107.984 13.4769H36.7497C36.0117 13.4769 35.3058 13.509 34.5999 13.6053C37.0706 5.74377 44.4187 6.86646e-05 53.1145 6.86646e-05H124.381C135.067 6.86646e-05 143.762 8.69584 143.762 19.4131Z" fill="white"/>
<path d="M60.719 52.1748L111.033 80.2836L112.573 81.15C118.188 84.2946 118.349 92.3165 112.83 95.6536L111.033 96.7446L89.0846 110.061L75.8645 118.083C73.2333 119.687 69.9603 119.719 67.3291 118.179L53.2426 110.061L36.2361 100.274L17.3364 89.3644V64.4644L33.7012 74.1228L69.5752 95.3007C71.5968 96.4879 74.0996 96.4879 76.1212 95.3007L85.7796 89.557C88.0899 88.1772 88.0578 84.808 85.7154 83.4924L34.375 54.7418C34.1504 54.6134 33.9258 54.4851 33.7012 54.3246C28.888 51.0196 28.8559 43.832 33.7012 40.5269C33.8295 40.4307 33.9579 40.3344 34.1183 40.2702L47.5631 32.0878L68.4522 19.349C71.1475 17.7125 74.5489 17.7125 77.2442 19.3811L114.723 40.559L127.397 47.7146V70.176L114.723 63.0846L111.033 61.031L74.1317 40.3986C72.3027 39.3397 70.0245 39.3718 68.2276 40.5269L60.4944 45.4363C57.9916 47.0407 58.1199 50.7308 60.719 52.1748Z" fill="white"/>
</svg>
