<svg width="2857" height="421" viewBox="0 0 2857 421" fill="none" xmlns="http://www.w3.org/2000/svg">
<path d="M2769.83 340.513C2757.52 340.513 2746.11 339.231 2735.59 336.666C2725.2 333.973 2716.1 330.126 2708.28 325.124C2700.58 319.994 2694.55 313.711 2690.19 306.272C2685.96 298.834 2683.85 290.306 2683.85 280.688C2683.85 279.662 2683.85 278.636 2683.85 277.61C2683.85 276.456 2683.85 275.494 2683.85 274.725H2716.74C2716.74 275.494 2716.74 276.135 2716.74 276.648C2716.74 277.161 2716.74 277.931 2716.74 278.957C2716.74 289.344 2721.55 297.295 2731.17 302.81C2740.78 308.196 2753.93 310.889 2770.6 310.889C2780.86 310.889 2790.03 309.863 2798.11 307.811C2806.19 305.759 2812.54 302.617 2817.15 298.385C2821.9 294.153 2824.27 288.831 2824.27 282.419C2824.27 271.775 2819.27 264.209 2809.27 259.72C2799.39 255.103 2784.58 251.128 2764.83 247.794C2754.44 245.998 2744.57 243.69 2735.21 240.868C2725.84 237.919 2717.51 234.136 2710.2 229.519C2703.02 224.902 2697.31 219.195 2693.08 212.398C2688.97 205.473 2686.92 197.202 2686.92 187.583C2686.92 175.144 2690.58 164.628 2697.89 156.036C2705.33 147.315 2715.33 140.711 2727.9 136.222C2740.46 131.605 2754.44 129.297 2769.83 129.297C2784.71 129.297 2798.43 131.669 2811 136.414C2823.57 141.159 2833.63 148.084 2841.2 157.19C2848.89 166.167 2852.74 177.26 2852.74 190.469C2852.74 190.982 2852.74 191.623 2852.74 192.393C2852.74 193.034 2852.74 193.675 2852.74 194.316H2820.04C2820.04 193.675 2820.04 193.162 2820.04 192.777C2820.04 192.393 2820.04 191.944 2820.04 191.431C2820.04 183.993 2817.67 177.901 2812.92 173.156C2808.18 168.283 2802.02 164.692 2794.45 162.384C2786.89 159.947 2778.81 158.729 2770.22 158.729C2762.14 158.729 2754.19 159.626 2746.36 161.422C2738.54 163.089 2732.06 165.91 2726.93 169.886C2721.81 173.861 2719.24 179.312 2719.24 186.237C2719.24 193.162 2721.61 198.741 2726.36 202.973C2731.23 207.076 2738.03 210.475 2746.75 213.168C2755.6 215.733 2765.98 218.105 2777.91 220.285C2788.56 222.209 2798.62 224.646 2808.11 227.595C2817.6 230.417 2825.94 234.072 2833.12 238.56C2840.43 243.049 2846.14 248.755 2850.24 255.681C2854.47 262.477 2856.59 270.813 2856.59 280.688C2856.59 290.691 2854.28 299.411 2849.66 306.85C2845.18 314.288 2838.89 320.507 2830.81 325.509C2822.86 330.51 2813.63 334.229 2803.11 336.666C2792.72 339.231 2781.63 340.513 2769.83 340.513Z" fill="black"/>
<path d="M2503.88 336.666V36H2535.04V220.285L2525.61 216.053L2623.33 132.375H2665.66L2567.74 218.554L2576.4 201.818L2666.42 336.666H2631.22L2555.24 219.901L2561.97 223.748L2530.23 251.256L2535.04 235.675V336.666H2503.88Z" fill="black"/>
<path d="M2358.49 340.513C2339 340.513 2321.3 336.281 2305.4 327.817C2289.5 319.225 2276.87 306.978 2267.51 291.076C2258.27 275.173 2253.65 256.258 2253.65 234.328C2253.65 212.398 2258.27 193.611 2267.51 177.965C2276.87 162.191 2289.5 150.136 2305.4 141.801C2321.3 133.465 2339 129.297 2358.49 129.297C2373.37 129.297 2386.64 131.605 2398.31 136.222C2409.98 140.711 2419.86 146.738 2427.94 154.304C2436.02 161.871 2442.17 170.206 2446.4 179.312C2450.76 188.289 2452.94 197.266 2452.94 206.243C2452.94 206.371 2452.94 206.563 2452.94 206.82C2452.94 207.076 2452.94 207.333 2452.94 207.589H2420.44C2420.44 206.948 2420.37 206.243 2420.24 205.473C2420.11 204.576 2419.99 203.678 2419.86 202.78C2418.83 194.188 2415.56 186.686 2410.05 180.274C2404.53 173.733 2397.35 168.603 2388.5 164.884C2379.65 161.165 2369.59 159.306 2358.3 159.306C2345.61 159.306 2333.81 162.063 2322.91 167.577C2312.13 172.964 2303.41 181.235 2296.74 192.393C2290.2 203.421 2286.93 217.4 2286.93 234.328C2286.93 251.128 2290.2 265.171 2296.74 276.456C2303.28 287.741 2311.94 296.269 2322.71 302.04C2333.61 307.683 2345.48 310.504 2358.3 310.504C2372.15 310.504 2383.57 308.324 2392.54 303.964C2401.52 299.604 2408.25 293.833 2412.74 286.651C2417.36 279.341 2419.92 271.519 2420.44 263.183H2452.94C2452.94 272.416 2450.89 281.65 2446.79 290.883C2442.69 299.989 2436.66 308.324 2428.71 315.891C2420.76 323.329 2410.88 329.292 2399.08 333.781C2387.41 338.269 2373.88 340.513 2358.49 340.513Z" fill="black"/>
<path d="M2168.41 336.666V132.375H2200.73V336.666H2168.41ZM2184.76 85.4376C2178.73 85.4376 2173.48 83.7704 2168.99 80.4361C2164.63 76.9735 2162.45 72.2927 2162.45 66.3935C2162.45 60.6225 2164.63 56.0699 2168.99 52.7356C2173.48 49.273 2178.73 47.5417 2184.76 47.5417C2190.79 47.5417 2195.98 49.273 2200.34 52.7356C2204.7 56.0699 2206.88 60.6225 2206.88 66.3935C2206.88 72.2927 2204.7 76.9735 2200.34 80.4361C2195.98 83.7704 2190.79 85.4376 2184.76 85.4376Z" fill="black"/>
<path d="M1975.78 336.666H1942.88V52.928H2022.52C2044.45 52.928 2062.66 57.0318 2077.15 65.2393C2091.65 73.3186 2102.48 84.2193 2109.66 97.9413C2116.85 111.663 2120.44 126.924 2120.44 143.724C2120.44 160.524 2116.72 176.041 2109.28 190.276C2101.97 204.511 2091 215.989 2076.38 224.71C2061.89 233.302 2043.94 237.598 2022.52 237.598H1975.78V336.666ZM1975.78 225.479L1960.97 208.743H2018.48C2033.87 208.743 2046.63 206.05 2056.76 200.664C2067.02 195.15 2074.65 187.519 2079.66 177.773C2084.78 168.026 2087.35 156.677 2087.35 143.724C2087.35 130.643 2084.91 119.486 2080.04 110.253C2075.17 101.019 2067.66 93.9658 2057.53 89.0925C2047.4 84.2193 2034.39 81.7827 2018.48 81.7827H1960.97L1975.78 63.1233V225.479Z" fill="black"/>
<path d="M1711.33 252.41V212.975H1846.75L1840.98 222.978C1840.98 221.952 1840.98 220.991 1840.98 220.093C1840.98 219.067 1840.98 218.105 1840.98 217.207C1840.98 209.898 1839.25 202.908 1835.79 196.24C1832.33 189.443 1826.94 183.928 1819.63 179.696C1812.45 175.336 1803.21 173.156 1791.93 173.156C1780.64 173.156 1770.9 175.593 1762.69 180.466C1754.61 185.211 1748.39 192.072 1744.03 201.049C1739.8 210.026 1737.68 220.862 1737.68 233.558C1737.68 246.639 1739.73 257.861 1743.84 267.222C1748.07 276.456 1754.29 283.573 1762.5 288.575C1770.83 293.576 1781.16 296.077 1793.47 296.077C1801.42 296.077 1808.28 295.372 1814.05 293.961C1819.82 292.422 1824.5 290.498 1828.09 288.19C1831.81 285.882 1834.63 283.317 1836.56 280.495C1838.48 277.674 1839.63 274.917 1840.02 272.224H1898.88C1898.11 280.816 1895.16 289.28 1890.03 297.616C1884.9 305.823 1877.79 313.262 1868.68 319.93C1859.58 326.471 1848.48 331.665 1835.4 335.512C1822.45 339.359 1807.64 341.283 1790.97 341.283C1768.4 341.283 1748.71 336.794 1731.91 327.817C1715.11 318.712 1702.09 306.208 1692.86 290.306C1683.63 274.276 1679.01 255.809 1679.01 234.905C1679.01 213.745 1683.69 195.214 1693.05 179.312C1702.54 163.281 1715.69 150.842 1732.49 141.993C1749.42 133.016 1768.97 128.527 1791.16 128.527C1813.86 128.527 1833.48 133.08 1850.02 142.185C1866.57 151.162 1879.33 163.794 1888.3 180.081C1897.28 196.24 1901.77 215.091 1901.77 236.636C1901.77 239.842 1901.7 242.92 1901.58 245.87C1901.45 248.819 1901.26 251 1901 252.41H1711.33Z" fill="black"/>
<path d="M1515.23 336.666V132.375H1575.06V202.78L1562.75 195.086C1564.16 185.467 1566.72 176.619 1570.44 168.539C1574.16 160.46 1578.97 153.471 1584.87 147.571C1590.77 141.544 1597.76 136.863 1605.84 133.529C1614.04 130.195 1623.41 128.527 1633.92 128.527C1642.13 128.527 1648.54 129.169 1653.16 130.451C1657.9 131.605 1660.85 132.503 1662.01 133.144L1652.2 186.621C1651.04 185.98 1648.48 184.954 1644.5 183.544C1640.53 182.133 1635.4 181.428 1629.11 181.428C1618.85 181.428 1610.26 183.159 1603.34 186.621C1596.41 190.084 1590.83 194.701 1586.6 200.472C1582.5 206.114 1579.55 212.398 1577.75 219.323C1575.96 226.249 1575.06 233.238 1575.06 240.291V336.666H1515.23Z" fill="black"/>
<path d="M1342.9 340.898C1328.02 340.898 1314.75 338.525 1303.08 333.781C1291.54 329.036 1282.5 322.174 1275.96 313.197C1269.42 304.22 1266.15 293.32 1266.15 280.495C1266.15 266.004 1270.12 254.206 1278.07 245.1C1286.03 235.995 1296.54 229.07 1309.62 224.325C1322.83 219.452 1337.13 216.246 1352.52 214.707C1374.96 212.527 1390.42 210.539 1398.88 208.743C1407.47 206.948 1411.77 203.806 1411.77 199.318C1411.77 199.189 1411.77 199.061 1411.77 198.933C1411.77 191.366 1408.11 185.403 1400.8 181.043C1393.62 176.683 1383.55 174.503 1370.6 174.503C1356.88 174.503 1346.36 177.003 1339.05 182.005C1331.87 186.878 1328.28 194.38 1328.28 204.511H1269.61C1269.61 188.096 1274.03 174.246 1282.88 162.961C1291.86 151.675 1303.98 143.147 1319.24 137.376C1334.5 131.477 1351.75 128.527 1370.99 128.527C1388.94 128.527 1405.55 131.285 1420.81 136.799C1436.07 142.185 1448.32 150.329 1457.55 161.229C1466.91 172.13 1471.59 185.98 1471.59 202.78C1471.59 205.473 1471.59 208.166 1471.59 210.859C1471.59 213.424 1471.59 216.053 1471.59 218.746V291.076C1471.59 296.333 1471.72 301.399 1471.98 306.272C1472.36 311.017 1473.13 315.378 1474.29 319.353C1475.57 323.842 1477.17 327.561 1479.1 330.51C1481.02 333.46 1482.62 335.512 1483.9 336.666H1425.23C1424.34 335.768 1422.92 333.909 1421 331.087C1419.21 328.266 1417.67 324.996 1416.38 321.277C1414.85 316.788 1413.69 312.3 1412.92 307.811C1412.28 303.195 1411.96 297.808 1411.96 291.653L1424.27 300.117C1420.68 308.581 1414.85 315.891 1406.77 322.046C1398.81 328.074 1389.32 332.755 1378.3 336.089C1367.4 339.295 1355.6 340.898 1342.9 340.898ZM1358.87 296.269C1368.23 296.269 1376.95 294.602 1385.03 291.268C1393.24 287.805 1399.91 282.419 1405.03 275.109C1410.16 267.799 1412.73 258.245 1412.73 246.447V225.864L1427.54 240.291C1419.08 243.369 1409.27 245.934 1398.11 247.986C1387.08 249.909 1376.05 251.448 1365.02 252.603C1351.94 253.885 1342.13 256.129 1335.59 259.335C1329.18 262.413 1325.97 267.671 1325.97 275.109C1325.97 282.163 1328.73 287.485 1334.24 291.076C1339.76 294.538 1347.97 296.269 1358.87 296.269Z" fill="black"/>
<path d="M1102.33 340.513C1087.84 340.513 1075.92 338.205 1066.55 333.588C1057.19 328.843 1049.82 322.495 1044.43 314.544C1039.05 306.593 1035.26 297.744 1033.08 287.998C1030.9 278.251 1029.81 268.377 1029.81 258.374C1029.81 253.757 1029.81 248.884 1029.81 243.754C1029.81 238.624 1029.81 233.366 1029.81 227.98V132.375H1089.45V218.554C1089.45 222.914 1089.45 227.146 1089.45 231.25C1089.45 235.354 1089.45 239.137 1089.45 242.6C1089.45 251.192 1090.41 259.079 1092.33 266.261C1094.25 273.442 1097.78 279.213 1102.91 283.573C1108.17 287.934 1115.61 290.114 1125.23 290.114C1134.59 290.114 1142.54 287.485 1149.08 282.227C1155.62 276.841 1160.62 269.98 1164.08 261.644C1167.55 253.308 1169.28 244.716 1169.28 235.867L1186.01 249.525C1186.01 262.349 1184.02 274.276 1180.05 285.305C1176.2 296.334 1170.69 306.016 1163.51 314.352C1156.32 322.559 1147.54 328.971 1137.15 333.588C1126.89 338.205 1115.29 340.513 1102.33 340.513ZM1169.28 336.666V132.375H1228.91V336.666H1169.28Z" fill="black"/>
<path d="M861.617 341.283C844.56 341.283 828.85 337.243 814.487 329.164C800.124 320.956 788.582 308.837 779.862 292.807C771.141 276.776 766.781 257.027 766.781 233.558C766.781 211.116 771.205 192.072 780.054 176.426C789.031 160.78 800.701 148.918 815.064 140.839C829.556 132.631 845.073 128.527 861.617 128.527C877.775 128.527 892.523 132.631 905.86 140.839C919.326 149.046 930.098 160.268 938.178 174.503C946.257 188.609 950.297 204.896 950.297 223.363C950.297 224.004 950.297 224.646 950.297 225.287C950.297 225.8 950.297 226.377 950.297 227.018L924.52 227.403C924.52 227.018 924.52 226.633 924.52 226.249C924.52 225.736 924.52 225.287 924.52 224.902C924.52 215.284 922.211 207.012 917.595 200.087C912.978 193.162 907.015 187.84 899.705 184.121C892.395 180.273 884.764 178.35 876.813 178.35C863.604 178.35 852.191 182.774 842.572 191.623C832.954 200.343 828.145 214.322 828.145 233.558C828.145 252.795 832.954 266.966 842.572 276.071C852.319 285.048 863.733 289.537 876.813 289.537C885.021 289.537 892.78 287.613 900.09 283.766C907.399 279.79 913.299 274.212 917.787 267.03C922.276 259.848 924.52 251.384 924.52 241.638L950.297 242.984C950.297 261.323 946.321 277.931 938.37 292.807C930.547 307.555 919.903 319.353 906.438 328.202C893.1 336.922 878.16 341.283 861.617 341.283ZM924.52 420.729V132.375H984.345V420.729H924.52Z" fill="black"/>
<path d="M632.877 341.283C612.358 341.283 594.276 338.013 578.63 331.472C563.113 324.932 550.93 315.185 542.081 302.233C533.36 289.152 529 272.929 529 253.564C529 251.513 529 249.653 529 247.986C529 246.19 529 244.267 529 242.215H588.825C588.825 244.139 588.825 245.87 588.825 247.409C588.825 248.819 588.825 250.487 588.825 252.41C588.825 265.619 592.544 275.751 599.983 282.804C607.421 289.857 618.45 293.384 633.069 293.384C647.817 293.384 659.167 291.076 667.118 286.459C675.069 281.714 679.044 273.955 679.044 263.183C679.044 255.616 676.031 248.948 670.003 243.177C664.104 237.406 656.025 232.276 645.765 227.788C635.634 223.171 624.028 218.875 610.947 214.899C596.712 210.411 583.503 204.511 571.32 197.202C559.137 189.892 549.327 180.594 541.888 169.309C534.579 158.023 530.924 144.109 530.924 127.566C530.924 110.894 535.348 96.7231 544.197 85.053C553.046 73.2546 565.1 64.2776 580.361 58.1219C595.622 51.838 612.871 48.696 632.107 48.696C652.242 48.696 670.003 51.838 685.393 58.1219C700.91 64.2776 713.029 73.5752 721.749 86.0148C730.598 98.3262 735.023 113.715 735.023 132.182C735.023 134.234 735.023 136.158 735.023 137.953C735.023 139.62 735.023 141.544 735.023 143.724H675.39C675.39 142.314 675.39 140.839 675.39 139.3C675.39 137.761 675.39 136.286 675.39 134.875C675.39 122.436 671.927 112.882 665.002 106.213C658.205 99.5445 647.497 96.2101 632.877 96.2101C618.77 96.2101 607.805 98.775 599.983 103.905C592.288 109.034 588.441 116.921 588.441 127.566C588.441 135.26 591.198 141.801 596.712 147.187C602.355 152.573 610.05 157.382 619.796 161.614C629.543 165.846 640.636 170.078 653.075 174.31C670.003 180.209 684.751 186.75 697.319 193.931C710.015 200.985 719.826 209.898 726.751 220.67C733.676 231.314 737.139 244.908 737.139 261.451C737.139 278.38 732.778 292.807 724.058 304.733C715.337 316.66 703.09 325.765 687.316 332.049C671.671 338.205 653.524 341.283 632.877 341.283Z" fill="black"/>
<path d="M325.966 365.215C325.111 396.196 299.737 421 268.566 421H57.4955C25.7542 421 0 395.246 0 363.505V152.529C0 123.829 21.0025 100.071 48.4673 95.7942C48.4673 96.3644 48.4673 96.9346 48.4673 97.4098V308.48C48.4673 340.221 74.2214 365.975 105.963 365.975H317.033C319.979 365.88 323.02 365.69 325.966 365.215Z" fill="black"/>
<path d="M422.901 57.4955V268.566C422.901 298.121 400.568 322.545 371.773 325.681C373.483 320.264 374.434 314.467 374.434 308.48V97.4097C374.434 65.6684 348.679 39.9142 316.938 39.9142H105.963C103.777 39.9142 101.686 40.0093 99.5957 40.2944C106.913 17.0111 128.676 0 154.43 0H365.5C397.147 0 422.901 25.7542 422.901 57.4955Z" fill="black"/>
<path d="M176.953 154.525L325.966 237.775L330.528 240.341C347.159 249.654 347.634 273.412 331.288 283.296L325.966 286.527L260.963 325.966L221.809 349.725C214.016 354.476 204.323 354.571 196.53 350.01L154.81 325.966L104.442 296.981L48.4673 264.669V190.923L96.9346 219.528L203.182 282.251C209.17 285.767 216.582 285.767 222.569 282.251L251.174 265.239C258.017 261.153 257.922 251.174 250.984 247.278L98.9302 162.128C98.265 161.748 97.5998 161.367 96.9346 160.892C82.6795 151.104 82.5844 129.816 96.9346 120.028C97.3147 119.743 97.6948 119.458 98.17 119.267L137.989 95.0338L199.856 57.3054C207.839 52.4587 217.913 52.4587 225.896 57.4004L336.895 120.123L374.433 141.315V207.839L336.895 186.837L325.966 180.754L216.677 119.648C211.26 116.511 204.513 116.607 199.191 120.028L176.288 134.568C168.875 139.32 169.255 150.249 176.953 154.525Z" fill="black"/>
</svg>
