<svg width="144" height="143" viewBox="0 0 144 143" fill="none" xmlns="http://www.w3.org/2000/svg">
<path d="M111.033 123.313C110.744 133.774 102.176 142.149 91.6516 142.149H20.3848C9.66745 142.149 0.97168 133.453 0.97168 122.736V51.5009C0.97168 41.8104 8.06307 33.7885 17.3364 32.3445C17.3364 32.5371 17.3364 32.7296 17.3364 32.89V104.157C17.3364 114.874 26.0322 123.57 36.7495 123.57H108.016C109.011 123.538 110.038 123.474 111.033 123.313Z" fill="white"/>
<path d="M143.762 19.4131V90.68C143.762 100.659 136.222 108.906 126.499 109.965C127.077 108.136 127.398 106.178 127.398 104.157V32.89C127.398 22.1727 118.702 13.4769 107.984 13.4769H36.7497C36.0117 13.4769 35.3058 13.509 34.5999 13.6053C37.0706 5.74377 44.4187 6.86646e-05 53.1145 6.86646e-05H124.381C135.067 6.86646e-05 143.762 8.69584 143.762 19.4131Z" fill="white"/>
<path d="M60.719 52.1748L111.033 80.2836L112.573 81.15C118.188 84.2946 118.349 92.3165 112.83 95.6536L111.033 96.7446L89.0846 110.061L75.8645 118.083C73.2333 119.687 69.9603 119.719 67.3291 118.179L53.2426 110.061L36.2361 100.274L17.3364 89.3644V64.4644L33.7012 74.1228L69.5752 95.3007C71.5968 96.4879 74.0996 96.4879 76.1212 95.3007L85.7796 89.557C88.0899 88.1772 88.0578 84.808 85.7154 83.4924L34.375 54.7418C34.1504 54.6134 33.9258 54.4851 33.7012 54.3246C28.888 51.0196 28.8559 43.832 33.7012 40.5269C33.8295 40.4307 33.9579 40.3344 34.1183 40.2702L47.5631 32.0878L68.4522 19.349C71.1475 17.7125 74.5489 17.7125 77.2442 19.3811L114.723 40.559L127.397 47.7146V70.176L114.723 63.0846L111.033 61.031L74.1317 40.3986C72.3027 39.3397 70.0245 39.3718 68.2276 40.5269L60.4944 45.4363C57.9916 47.0407 58.1199 50.7308 60.719 52.1748Z" fill="white"/>
</svg>
