<svg width="966" height="143" viewBox="0 0 966 143" fill="none" xmlns="http://www.w3.org/2000/svg">
<path d="M936.619 115.025C932.461 115.025 928.605 114.592 925.053 113.726C921.544 112.816 918.468 111.516 915.825 109.827C913.226 108.094 911.19 105.971 909.717 103.459C908.288 100.946 907.573 98.0652 907.573 94.8162C907.573 94.4696 907.573 94.123 907.573 93.7765C907.573 93.3866 907.573 93.0617 907.573 92.8018H918.685C918.685 93.0617 918.685 93.2783 918.685 93.4516C918.685 93.6248 918.685 93.8848 918.685 94.2313C918.685 97.7403 920.309 100.426 923.558 102.289C926.807 104.108 931.248 105.018 936.879 105.018C940.345 105.018 943.442 104.672 946.172 103.978C948.901 103.285 951.045 102.224 952.605 100.794C954.207 99.3648 955.009 97.567 955.009 95.401C955.009 91.8054 953.319 89.2495 949.94 87.7333C946.605 86.1737 941.601 84.8308 934.93 83.7045C931.421 83.098 928.085 82.3182 924.923 81.3652C921.76 80.3688 918.945 79.0908 916.475 77.5313C914.049 75.9718 912.122 74.044 910.692 71.748C909.306 69.4087 908.613 66.6146 908.613 63.3655C908.613 59.1634 909.847 55.6112 912.317 52.7087C914.829 49.7629 918.208 47.5319 922.454 46.0157C926.699 44.4562 931.421 43.6764 936.619 43.6764C941.645 43.6764 946.28 44.4778 950.525 46.0807C954.771 47.6835 958.171 50.0228 960.727 53.0986C963.326 56.131 964.626 59.8782 964.626 64.3402C964.626 64.5135 964.626 64.7301 964.626 64.99C964.626 65.2066 964.626 65.4233 964.626 65.6399H953.579C953.579 65.4233 953.579 65.25 953.579 65.12C953.579 64.99 953.579 64.8384 953.579 64.6651C953.579 62.1526 952.778 60.0948 951.175 58.492C949.572 56.8458 947.493 55.6328 944.937 54.8531C942.381 54.03 939.652 53.6184 936.749 53.6184C934.02 53.6184 931.334 53.9217 928.692 54.5282C926.049 55.0913 923.861 56.0444 922.129 57.3873C920.396 58.7302 919.529 60.5714 919.529 62.9107C919.529 65.25 920.331 67.1344 921.934 68.564C923.58 69.9502 925.876 71.0982 928.822 72.008C931.811 72.8744 935.32 73.6758 939.348 74.4122C942.944 75.062 946.345 75.8851 949.55 76.8815C952.756 77.8346 955.572 79.0692 957.998 80.5854C960.467 82.1016 962.395 84.0294 963.781 86.3687C965.211 88.6647 965.926 91.4805 965.926 94.8162C965.926 98.1952 965.146 101.141 963.586 103.654C962.07 106.166 959.947 108.267 957.218 109.957C954.532 111.646 951.413 112.902 947.861 113.726C944.352 114.592 940.605 115.025 936.619 115.025Z" fill="#2B2B2B"/>
<path d="M846.78 113.726V12.1608H857.306V74.4123L854.122 72.9827L887.133 44.7161H901.428L868.353 73.8275L871.277 68.1741L901.688 113.726H889.797L864.129 74.2823L866.404 75.5819L855.682 84.8742L857.306 79.6107V113.726H846.78Z" fill="#2B2B2B"/>
<path d="M797.669 115.025C791.084 115.025 785.106 113.596 779.734 110.736C774.363 107.834 770.096 103.697 766.933 98.3251C763.814 92.9534 762.255 86.5636 762.255 79.1558C762.255 71.748 763.814 65.4016 766.933 60.1165C770.096 54.7881 774.363 50.716 779.734 47.9001C785.106 45.0843 791.084 43.6764 797.669 43.6764C802.694 43.6764 807.178 44.4562 811.12 46.0157C815.062 47.5319 818.398 49.568 821.127 52.1239C823.856 54.6798 825.936 57.4956 827.365 60.5714C828.838 63.6038 829.575 66.6362 829.575 69.6687C829.575 69.712 829.575 69.777 829.575 69.8636C829.575 69.9502 829.575 70.0369 829.575 70.1235H818.593C818.593 69.9069 818.571 69.6686 818.528 69.4087C818.485 69.1055 818.441 68.8022 818.398 68.499C818.051 65.5965 816.947 63.0623 815.084 60.8963C813.221 58.6869 810.795 56.9541 807.806 55.6978C804.817 54.4415 801.416 53.8134 797.604 53.8134C793.315 53.8134 789.33 54.7448 785.648 56.6075C782.009 58.427 779.063 61.2212 776.81 64.99C774.601 68.7156 773.496 73.4375 773.496 79.1558C773.496 84.8308 774.601 89.5744 776.81 93.3866C779.02 97.1988 781.944 100.08 785.583 102.029C789.265 103.935 793.272 104.888 797.604 104.888C802.283 104.888 806.138 104.152 809.171 102.679C812.203 101.206 814.477 99.2565 815.994 96.8306C817.553 94.3613 818.42 91.7188 818.593 88.9029H829.575C829.575 92.022 828.881 95.1411 827.495 98.2601C826.109 101.336 824.073 104.152 821.387 106.708C818.701 109.22 815.365 111.235 811.38 112.751C807.438 114.267 802.868 115.025 797.669 115.025Z" fill="#2B2B2B"/>
<path d="M733.459 113.725V44.716H744.376V113.725H733.459ZM738.983 28.8608C736.947 28.8608 735.17 28.2976 733.654 27.1713C732.181 26.0016 731.445 24.4204 731.445 22.4277C731.445 20.4783 732.181 18.9404 733.654 17.814C735.17 16.6444 736.947 16.0596 738.983 16.0596C741.019 16.0596 742.773 16.6444 744.246 17.814C745.719 18.9404 746.455 20.4783 746.455 22.4277C746.455 24.4204 745.719 26.0016 744.246 27.1713C742.773 28.2976 741.019 28.8608 738.983 28.8608Z" fill="#2B2B2B"/>
<path d="M668.388 113.726H657.276V17.8791H684.178C691.586 17.8791 697.738 19.2653 702.633 22.0378C707.528 24.767 711.189 28.4492 713.615 33.0845C716.041 37.7198 717.253 42.8749 717.253 48.5499C717.253 54.2249 715.997 59.4667 713.485 64.2752C711.015 69.0838 707.311 72.961 702.373 75.9068C697.478 78.8092 691.413 80.2605 684.178 80.2605H668.388V113.726ZM668.388 76.1667L663.385 70.5134H682.814C688.012 70.5134 692.323 69.6037 695.745 67.7842C699.211 65.9214 701.788 63.3438 703.478 60.0515C705.21 56.7591 706.077 52.9253 706.077 48.5499C706.077 44.1312 705.254 40.3624 703.608 37.2433C701.961 34.1242 699.427 31.7416 696.005 30.0954C692.583 28.4492 688.186 27.6262 682.814 27.6262H663.385L668.388 21.323V76.1667Z" fill="#2B2B2B"/>
<path d="M579.057 85.264V71.943H624.803L622.854 75.322C622.854 74.9754 622.854 74.6505 622.854 74.3473C622.854 74.0007 622.854 73.6758 622.854 73.3725C622.854 70.9033 622.269 68.5423 621.099 66.2897C619.93 63.9937 618.11 62.1309 615.641 60.7013C613.215 59.2284 610.096 58.492 606.284 58.492C602.472 58.492 599.179 59.3151 596.407 60.9612C593.678 62.5641 591.576 64.8817 590.104 67.9142C588.674 70.9466 587.959 74.6072 587.959 78.8959C587.959 83.3146 588.652 87.1051 590.039 90.2675C591.468 93.3866 593.569 95.7909 596.342 97.4804C599.158 99.1699 602.645 100.015 606.804 100.015C609.489 100.015 611.807 99.7764 613.757 99.2998C615.706 98.78 617.287 98.1302 618.5 97.3504C619.756 96.5706 620.709 95.7042 621.359 94.7512C622.009 93.7981 622.399 92.8667 622.529 91.957H642.413C642.153 94.8595 641.157 97.7186 639.424 100.534C637.691 103.307 635.287 105.82 632.211 108.072C629.135 110.282 625.388 112.036 620.969 113.336C616.594 114.635 611.591 115.285 605.959 115.285C598.334 115.285 591.685 113.769 586.01 110.736C580.335 107.661 575.938 103.437 572.819 98.0652C569.7 92.6501 568.14 86.412 568.14 79.3508C568.14 72.2029 569.721 65.9431 572.884 60.5714C576.089 55.1563 580.53 50.9542 586.205 47.9651C591.923 44.9327 598.529 43.4165 606.024 43.4165C613.692 43.4165 620.32 44.9543 625.908 48.0301C631.496 51.0625 635.807 55.3296 638.839 60.8313C641.872 66.2897 643.388 72.6578 643.388 79.9356C643.388 81.0186 643.366 82.0583 643.323 83.0547C643.279 84.051 643.214 84.7875 643.128 85.264H579.057Z" fill="#2B2B2B"/>
<path d="M512.816 113.726V44.7161H533.025V68.499L528.867 65.8998C529.343 62.6507 530.21 59.6616 531.466 56.9324C532.722 54.2033 534.347 51.8423 536.339 49.8496C538.332 47.8135 540.693 46.2323 543.422 45.106C546.195 43.9796 549.357 43.4165 552.909 43.4165C555.682 43.4165 557.848 43.6331 559.408 44.0663C561.01 44.4562 562.007 44.7594 562.397 44.976L559.083 63.0406C558.693 62.824 557.826 62.4775 556.483 62.0009C555.14 61.5244 553.408 61.2862 551.285 61.2862C547.819 61.2862 544.917 61.871 542.578 63.0406C540.238 64.2103 538.354 65.7698 536.924 67.7192C535.538 69.6253 534.542 71.748 533.935 74.0873C533.329 76.4266 533.025 78.7876 533.025 81.1702V113.726H512.816Z" fill="#2B2B2B"/>
<path d="M454.603 115.155C449.578 115.155 445.094 114.354 441.152 112.751C437.253 111.148 434.199 108.83 431.99 105.798C429.78 102.765 428.676 99.0832 428.676 94.7512C428.676 89.856 430.018 85.8705 432.704 82.7947C435.39 79.719 438.942 77.3797 443.361 75.7768C447.823 74.1307 452.653 73.0476 457.852 72.5278C465.433 71.7914 470.653 71.1199 473.512 70.5134C476.415 69.9069 477.866 68.8456 477.866 67.3293C477.866 67.286 477.866 67.2427 477.866 67.1994C477.866 64.6435 476.631 62.6291 474.162 61.1562C471.736 59.6833 468.335 58.9468 463.96 58.9468C459.325 58.9468 455.772 59.7916 453.303 61.4811C450.877 63.1273 449.664 65.6615 449.664 69.0838H429.845C429.845 63.5388 431.34 58.8602 434.329 55.048C437.361 51.2358 441.455 48.355 446.61 46.4056C451.765 44.4128 457.592 43.4165 464.09 43.4165C470.155 43.4165 475.765 44.3479 480.92 46.2106C486.075 48.0301 490.212 50.7809 493.331 54.4632C496.494 58.1454 498.075 62.824 498.075 68.499C498.075 69.4087 498.075 70.3185 498.075 71.2282C498.075 72.0946 498.075 72.9827 498.075 73.8924V98.3251C498.075 100.101 498.118 101.812 498.205 103.459C498.335 105.061 498.595 106.534 498.985 107.877C499.418 109.393 499.959 110.65 500.609 111.646C501.259 112.643 501.8 113.336 502.234 113.726H482.415C482.111 113.422 481.635 112.794 480.985 111.841C480.378 110.888 479.859 109.783 479.425 108.527C478.906 107.011 478.516 105.495 478.256 103.978C478.039 102.419 477.931 100.599 477.931 98.5201L482.09 101.379C480.877 104.238 478.906 106.708 476.176 108.787C473.491 110.823 470.285 112.404 466.559 113.531C462.877 114.614 458.892 115.155 454.603 115.155ZM459.996 100.08C463.159 100.08 466.104 99.5164 468.834 98.3901C471.606 97.2205 473.859 95.401 475.592 92.9317C477.324 90.4625 478.191 87.2351 478.191 83.2496V76.2967L483.194 81.1702C480.335 82.2099 477.021 83.0763 473.252 83.7695C469.527 84.4193 465.801 84.9391 462.076 85.329C457.657 85.7622 454.343 86.5203 452.134 87.6033C449.968 88.643 448.885 90.4191 448.885 92.9317C448.885 95.3143 449.816 97.1121 451.679 98.3251C453.541 99.4948 456.314 100.08 459.996 100.08Z" fill="#2B2B2B"/>
<path d="M373.339 115.025C368.444 115.025 364.416 114.245 361.253 112.686C358.091 111.083 355.6 108.939 353.78 106.253C351.961 103.567 350.683 100.578 349.946 97.2855C349.21 93.9931 348.842 90.6574 348.842 87.2785C348.842 85.7189 348.842 84.0727 348.842 82.3399C348.842 80.6071 348.842 78.831 348.842 77.0115V44.7161H368.986V73.8275C368.986 75.3004 368.986 76.7299 368.986 78.1162C368.986 79.5024 368.986 80.7804 368.986 81.95C368.986 84.8525 369.311 87.5167 369.961 89.9427C370.61 92.3686 371.802 94.318 373.534 95.7909C375.311 97.2638 377.823 98.0003 381.072 98.0003C384.235 98.0003 386.92 97.1122 389.13 95.336C391.339 93.5166 393.029 91.1989 394.198 88.3831C395.368 85.5673 395.953 82.6648 395.953 79.6757L401.606 84.2893C401.606 88.6214 400.935 92.6502 399.592 96.3757C398.292 100.101 396.429 103.372 394.003 106.188C391.577 108.96 388.61 111.126 385.101 112.686C381.635 114.245 377.715 115.025 373.339 115.025ZM395.953 113.726V44.7161H416.097V113.726H395.953Z" fill="#2B2B2B"/>
<path d="M292.025 115.285C286.264 115.285 280.957 113.92 276.105 111.191C271.253 108.419 267.354 104.325 264.409 98.9099C261.463 93.4949 259.99 86.8235 259.99 78.8959C259.99 71.3148 261.485 64.8817 264.474 59.5967C267.506 54.3116 271.448 50.3044 276.3 47.5752C281.195 44.8027 286.437 43.4165 292.025 43.4165C297.484 43.4165 302.466 44.8027 306.971 47.5752C311.52 50.3477 315.159 54.1383 317.888 58.9468C320.617 63.7121 321.982 69.2138 321.982 75.4519C321.982 75.6685 321.982 75.8851 321.982 76.1017C321.982 76.275 321.982 76.47 321.982 76.6866L313.274 76.8165C313.274 76.6866 313.274 76.5566 313.274 76.4266C313.274 76.2534 313.274 76.1017 313.274 75.9718C313.274 72.7227 312.494 69.9286 310.935 67.5893C309.375 65.25 307.361 63.4522 304.892 62.1959C302.422 60.8963 299.845 60.2465 297.159 60.2465C292.697 60.2465 288.841 61.741 285.592 64.7301C282.343 67.6759 280.719 72.3978 280.719 78.8959C280.719 85.394 282.343 90.1809 285.592 93.2566C288.885 96.2891 292.74 97.8053 297.159 97.8053C299.931 97.8053 302.552 97.1555 305.022 95.8559C307.491 94.5129 309.484 92.6285 311 90.2025C312.516 87.7766 313.274 84.9174 313.274 81.6251L321.982 82.08C321.982 88.2748 320.639 93.8848 317.953 98.9099C315.31 103.892 311.715 107.877 307.166 110.866C302.661 113.812 297.614 115.285 292.025 115.285ZM313.274 142.122V44.7161H333.483V142.122H313.274Z" fill="#2B2B2B"/>
<path d="M214.757 115.285C207.826 115.285 201.718 114.18 196.433 111.971C191.191 109.762 187.076 106.469 184.086 102.094C181.141 97.6753 179.668 92.1953 179.668 85.6539C179.668 84.9608 179.668 84.3326 179.668 83.7694C179.668 83.163 179.668 82.5132 179.668 81.82H199.877C199.877 82.4698 199.877 83.0547 199.877 83.5745C199.877 84.051 199.877 84.6142 199.877 85.264C199.877 89.726 201.133 93.1483 203.646 95.5309C206.158 97.9136 209.884 99.1049 214.822 99.1049C219.804 99.1049 223.638 98.3251 226.324 96.7656C229.01 95.1627 230.353 92.5418 230.353 88.9029C230.353 86.347 229.335 84.0944 227.299 82.1449C225.306 80.1955 222.577 78.4627 219.111 76.9465C215.689 75.3869 211.768 73.9357 207.349 72.5928C202.541 71.0766 198.079 69.0838 193.963 66.6146C189.848 64.1453 186.534 61.0046 184.021 57.1924C181.552 53.3802 180.318 48.6799 180.318 43.0916C180.318 37.4599 181.812 32.673 184.801 28.7308C187.79 24.7454 191.862 21.7129 197.018 19.6335C202.173 17.5108 207.999 16.4495 214.497 16.4495C221.299 16.4495 227.299 17.5108 232.497 19.6335C237.739 21.7129 241.833 24.8537 244.778 29.0557C247.767 33.2145 249.262 38.413 249.262 44.6511C249.262 45.3442 249.262 45.994 249.262 46.6005C249.262 47.1637 249.262 47.8135 249.262 48.5499H229.118C229.118 48.0734 229.118 47.5752 229.118 47.0554C229.118 46.5355 229.118 46.0373 229.118 45.5608C229.118 41.3587 227.948 38.1314 225.609 35.8787C223.313 33.626 219.696 32.4997 214.757 32.4997C209.992 32.4997 206.288 33.3661 203.646 35.0989C201.046 36.8318 199.747 39.496 199.747 43.0916C199.747 45.6908 200.678 47.9001 202.541 49.7196C204.447 51.539 207.046 53.1636 210.339 54.5931C213.631 56.0227 217.378 57.4523 221.58 58.8819C227.299 60.8746 232.28 63.0839 236.526 65.5099C240.815 67.8925 244.129 70.9033 246.468 74.5422C248.807 78.1378 249.977 82.7298 249.977 88.3181C249.977 94.0364 248.504 98.9099 245.558 102.939C242.612 106.968 238.475 110.043 233.147 112.166C227.862 114.245 221.732 115.285 214.757 115.285Z" fill="#2B2B2B"/>
<path d="M111.083 123.369C110.794 133.835 102.223 142.213 91.6929 142.213H20.3936C9.67142 142.213 0.97168 133.514 0.97168 122.792V51.5243C0.97168 41.8294 8.0663 33.8038 17.3439 32.3592C17.3439 32.5518 17.3439 32.7444 17.3439 32.9049V104.204C17.3439 114.926 26.0436 123.626 36.7658 123.626H108.065C109.06 123.594 110.088 123.53 111.083 123.369Z" fill="url(#paint0_linear_2_249)"/>
<path d="M143.828 19.422V90.7213C143.828 100.705 136.284 108.955 126.557 110.015C127.134 108.185 127.456 106.227 127.456 104.204V32.905C127.456 22.1828 118.756 13.4831 108.034 13.4831H36.7663C36.028 13.4831 35.3217 13.5152 34.6155 13.6115C37.0874 5.74638 44.4388 6.10352e-05 53.1385 6.10352e-05H124.438C135.128 6.10352e-05 143.828 8.6998 143.828 19.422Z" fill="url(#paint1_linear_2_249)"/>
<path d="M60.7466 52.1985L111.083 80.3202L112.624 81.187C118.242 84.333 118.402 92.3586 112.881 95.6972L111.083 96.7887L89.1251 110.111L75.8989 118.137C73.2665 119.742 69.9921 119.774 67.3597 118.233L53.2668 110.111L36.2525 100.32L17.3442 89.4052V64.4937L33.7164 74.1565L69.6069 95.3441C71.6293 96.5319 74.1333 96.5319 76.1558 95.3441L85.8186 89.5978C88.1299 88.2174 88.0978 84.8466 85.7543 83.5304L34.3906 54.7667C34.1659 54.6383 33.9412 54.5099 33.7164 54.3494C28.9011 51.0428 28.869 43.8519 33.7164 40.5454C33.8448 40.4491 33.9733 40.3528 34.1338 40.2886L47.5847 32.1024L68.4833 19.3578C71.1799 17.7206 74.5827 17.7206 77.2793 19.3899L114.775 40.5775L127.455 47.7363V70.208L114.775 63.1133L111.083 61.0588L74.1654 40.417C72.3356 39.3576 70.0563 39.3897 68.2586 40.5454L60.5219 45.457C58.0179 47.0622 58.1463 50.7539 60.7466 52.1985Z" fill="url(#paint2_linear_2_249)"/>
<defs>
<linearGradient id="paint0_linear_2_249" x1="0.97168" y1="87.2767" x2="111.073" y2="87.2767" gradientUnits="userSpaceOnUse">
<stop stop-color="#1BB0F2"/>
<stop offset="1" stop-color="#5C5DDB"/>
</linearGradient>
<linearGradient id="paint1_linear_2_249" x1="34.6026" y1="54.9962" x2="143.828" y2="54.9962" gradientUnits="userSpaceOnUse">
<stop stop-color="#1BB0F2"/>
<stop offset="1" stop-color="#5C5DDB"/>
</linearGradient>
<linearGradient id="paint2_linear_2_249" x1="17.3442" y1="68.7482" x2="127.455" y2="68.7482" gradientUnits="userSpaceOnUse">
<stop stop-color="#5855E4"/>
<stop offset="1" stop-color="#D43DAE"/>
</linearGradient>
</defs>
</svg>
