<svg width="787" height="131" viewBox="0 0 787 131" fill="none" xmlns="http://www.w3.org/2000/svg">
<path d="M757.619 103.025C753.461 103.025 749.605 102.592 746.053 101.726C742.544 100.816 739.468 99.5162 736.825 97.8267C734.226 96.0939 732.19 93.9712 730.717 91.4586C729.288 88.946 728.573 86.0652 728.573 82.8162C728.573 82.4696 728.573 82.123 728.573 81.7765C728.573 81.3866 728.573 81.0617 728.573 80.8018H739.685C739.685 81.0617 739.685 81.2783 739.685 81.4516C739.685 81.6248 739.685 81.8848 739.685 82.2313C739.685 85.7403 741.309 88.4262 744.558 90.2889C747.807 92.1084 752.248 93.0181 757.879 93.0181C761.345 93.0181 764.442 92.6716 767.172 91.9784C769.901 91.2853 772.045 90.224 773.605 88.7944C775.207 87.3648 776.009 85.567 776.009 83.401C776.009 79.8054 774.319 77.2495 770.94 75.7333C767.605 74.1737 762.601 72.8308 755.93 71.7045C752.421 71.098 749.085 70.3182 745.923 69.3652C742.76 68.3688 739.945 67.0908 737.475 65.5313C735.049 63.9718 733.122 62.044 731.692 59.748C730.306 57.4087 729.613 54.6146 729.613 51.3655C729.613 47.1634 730.847 43.6112 733.317 40.7087C735.829 37.7629 739.208 35.5319 743.454 34.0157C747.699 32.4562 752.421 31.6764 757.619 31.6764C762.645 31.6764 767.28 32.4778 771.525 34.0807C775.771 35.6835 779.171 38.0228 781.727 41.0986C784.326 44.131 785.626 47.8782 785.626 52.3402C785.626 52.5135 785.626 52.7301 785.626 52.99C785.626 53.2066 785.626 53.4233 785.626 53.6399H774.579C774.579 53.4233 774.579 53.25 774.579 53.12C774.579 52.99 774.579 52.8384 774.579 52.6651C774.579 50.1526 773.778 48.0948 772.175 46.492C770.572 44.8458 768.493 43.6328 765.937 42.8531C763.381 42.03 760.652 41.6184 757.749 41.6184C755.02 41.6184 752.334 41.9217 749.692 42.5282C747.049 43.0913 744.861 44.0444 743.129 45.3873C741.396 46.7302 740.529 48.5714 740.529 50.9107C740.529 53.25 741.331 55.1344 742.934 56.564C744.58 57.9502 746.876 59.0982 749.822 60.008C752.811 60.8744 756.32 61.6758 760.348 62.4122C763.944 63.062 767.345 63.8851 770.55 64.8815C773.756 65.8346 776.572 67.0692 778.998 68.5854C781.467 70.1016 783.395 72.0294 784.781 74.3687C786.211 76.6647 786.926 79.4805 786.926 82.8162C786.926 86.1952 786.146 89.1409 784.586 91.6535C783.07 94.1661 780.947 96.2672 778.218 97.9566C775.532 99.6461 772.413 100.902 768.861 101.726C765.352 102.592 761.605 103.025 757.619 103.025Z" fill="#2B2B2B"/>
<path d="M667.78 101.726V0.160828H678.306V62.4123L675.122 60.9827L708.133 32.7161H722.428L689.353 61.8275L692.277 56.1741L722.688 101.726H710.797L685.129 62.2823L687.404 63.5819L676.682 72.8742L678.306 67.6107V101.726H667.78Z" fill="#2B2B2B"/>
<path d="M618.669 103.025C612.084 103.025 606.106 101.596 600.734 98.7364C595.363 95.8339 591.096 91.6968 587.933 86.3251C584.814 80.9534 583.255 74.5636 583.255 67.1558C583.255 59.748 584.814 53.4016 587.933 48.1165C591.096 42.7881 595.363 38.716 600.734 35.9001C606.106 33.0843 612.084 31.6764 618.669 31.6764C623.694 31.6764 628.178 32.4562 632.12 34.0157C636.062 35.5319 639.398 37.568 642.127 40.1239C644.856 42.6798 646.936 45.4956 648.365 48.5714C649.838 51.6038 650.575 54.6362 650.575 57.6687C650.575 57.712 650.575 57.777 650.575 57.8636C650.575 57.9502 650.575 58.0369 650.575 58.1235H639.593C639.593 57.9069 639.571 57.6686 639.528 57.4087C639.485 57.1055 639.441 56.8022 639.398 56.499C639.051 53.5965 637.947 51.0623 636.084 48.8963C634.221 46.6869 631.795 44.9541 628.806 43.6978C625.817 42.4415 622.416 41.8134 618.604 41.8134C614.315 41.8134 610.33 42.7448 606.648 44.6075C603.009 46.427 600.063 49.2212 597.81 52.99C595.601 56.7156 594.496 61.4375 594.496 67.1558C594.496 72.8308 595.601 77.5744 597.81 81.3866C600.02 85.1988 602.944 88.0796 606.583 90.029C610.265 91.9351 614.272 92.8882 618.604 92.8882C623.283 92.8882 627.138 92.1517 630.171 90.6788C633.203 89.2059 635.477 87.2565 636.994 84.8306C638.553 82.3613 639.42 79.7188 639.593 76.9029H650.575C650.575 80.022 649.881 83.1411 648.495 86.2601C647.109 89.3359 645.073 92.1517 642.387 94.7076C639.701 97.2202 636.365 99.2346 632.38 100.751C628.438 102.267 623.868 103.025 618.669 103.025Z" fill="#2B2B2B"/>
<path d="M554.459 101.725V32.716H565.376V101.725H554.459ZM559.983 16.8608C557.947 16.8608 556.17 16.2976 554.654 15.1713C553.181 14.0016 552.445 12.4204 552.445 10.4277C552.445 8.47825 553.181 6.94038 554.654 5.81404C556.17 4.64439 557.947 4.05957 559.983 4.05957C562.019 4.05957 563.773 4.64439 565.246 5.81404C566.719 6.94038 567.455 8.47825 567.455 10.4277C567.455 12.4204 566.719 14.0016 565.246 15.1713C563.773 16.2976 562.019 16.8608 559.983 16.8608Z" fill="#2B2B2B"/>
<path d="M489.388 101.726H478.276V5.87906H505.178C512.586 5.87906 518.738 7.26531 523.633 10.0378C528.528 12.767 532.189 16.4492 534.615 21.0845C537.041 25.7198 538.253 30.8749 538.253 36.5499C538.253 42.2249 536.997 47.4667 534.485 52.2752C532.015 57.0838 528.311 60.961 523.373 63.9068C518.478 66.8092 512.413 68.2605 505.178 68.2605H489.388V101.726ZM489.388 64.1667L484.385 58.5134H503.814C509.012 58.5134 513.323 57.6037 516.745 55.7842C520.211 53.9214 522.788 51.3438 524.478 48.0515C526.21 44.7591 527.077 40.9253 527.077 36.5499C527.077 32.1312 526.254 28.3624 524.608 25.2433C522.961 22.1242 520.427 19.7416 517.005 18.0954C513.583 16.4492 509.186 15.6262 503.814 15.6262H484.385L489.388 9.32303V64.1667Z" fill="#2B2B2B"/>
<path d="M400.057 73.264V59.943H445.803L443.854 63.322C443.854 62.9754 443.854 62.6505 443.854 62.3473C443.854 62.0007 443.854 61.6758 443.854 61.3725C443.854 58.9033 443.269 56.5423 442.099 54.2897C440.93 51.9937 439.11 50.1309 436.641 48.7013C434.215 47.2284 431.096 46.492 427.284 46.492C423.472 46.492 420.179 47.3151 417.407 48.9612C414.678 50.5641 412.576 52.8817 411.104 55.9142C409.674 58.9466 408.959 62.6072 408.959 66.8959C408.959 71.3146 409.652 75.1051 411.039 78.2675C412.468 81.3866 414.569 83.7909 417.342 85.4804C420.158 87.1699 423.645 88.0146 427.804 88.0146C430.489 88.0146 432.807 87.7764 434.757 87.2998C436.706 86.78 438.287 86.1302 439.5 85.3504C440.756 84.5706 441.709 83.7042 442.359 82.7512C443.009 81.7981 443.399 80.8667 443.529 79.957H463.413C463.153 82.8595 462.157 85.7186 460.424 88.5345C458.691 91.307 456.287 93.8196 453.211 96.0722C450.135 98.2816 446.388 100.036 441.969 101.336C437.594 102.635 432.591 103.285 426.959 103.285C419.334 103.285 412.685 101.769 407.01 98.7364C401.335 95.6607 396.938 91.4369 393.819 86.0652C390.7 80.6501 389.14 74.412 389.14 67.3508C389.14 60.2029 390.721 53.9431 393.884 48.5714C397.089 43.1563 401.53 38.9542 407.205 35.9651C412.923 32.9327 419.529 31.4165 427.024 31.4165C434.692 31.4165 441.32 32.9543 446.908 36.0301C452.496 39.0625 456.807 43.3296 459.839 48.8313C462.872 54.2897 464.388 60.6578 464.388 67.9356C464.388 69.0186 464.366 70.0583 464.323 71.0547C464.279 72.051 464.214 72.7875 464.128 73.264H400.057Z" fill="#2B2B2B"/>
<path d="M333.816 101.726V32.7161H354.025V56.499L349.867 53.8998C350.343 50.6507 351.21 47.6616 352.466 44.9324C353.722 42.2033 355.347 39.8423 357.339 37.8496C359.332 35.8135 361.693 34.2323 364.422 33.106C367.195 31.9796 370.357 31.4165 373.909 31.4165C376.682 31.4165 378.848 31.6331 380.408 32.0663C382.01 32.4562 383.007 32.7594 383.397 32.976L380.083 51.0406C379.693 50.824 378.826 50.4775 377.483 50.0009C376.14 49.5244 374.408 49.2862 372.285 49.2862C368.819 49.2862 365.917 49.871 363.578 51.0406C361.238 52.2103 359.354 53.7698 357.924 55.7192C356.538 57.6253 355.542 59.748 354.935 62.0873C354.329 64.4266 354.025 66.7876 354.025 69.1702V101.726H333.816Z" fill="#2B2B2B"/>
<path d="M275.603 103.155C270.578 103.155 266.094 102.354 262.152 100.751C258.253 99.148 255.199 96.8303 252.99 93.7979C250.78 90.7655 249.676 87.0832 249.676 82.7512C249.676 77.856 251.018 73.8705 253.704 70.7947C256.39 67.719 259.942 65.3797 264.361 63.7768C268.823 62.1307 273.653 61.0476 278.852 60.5278C286.433 59.7914 291.653 59.1199 294.512 58.5134C297.415 57.9069 298.866 56.8456 298.866 55.3293C298.866 55.286 298.866 55.2427 298.866 55.1994C298.866 52.6435 297.631 50.6291 295.162 49.1562C292.736 47.6833 289.335 46.9468 284.96 46.9468C280.325 46.9468 276.772 47.7916 274.303 49.4811C271.877 51.1273 270.664 53.6615 270.664 57.0838H250.845C250.845 51.5388 252.34 46.8602 255.329 43.048C258.361 39.2358 262.455 36.355 267.61 34.4056C272.765 32.4128 278.592 31.4165 285.09 31.4165C291.155 31.4165 296.765 32.3479 301.92 34.2106C307.075 36.0301 311.212 38.7809 314.331 42.4632C317.494 46.1454 319.075 50.824 319.075 56.499C319.075 57.4087 319.075 58.3185 319.075 59.2282C319.075 60.0946 319.075 60.9827 319.075 61.8924V86.3251C319.075 88.1013 319.118 89.8124 319.205 91.4586C319.335 93.0615 319.595 94.5343 319.985 95.8773C320.418 97.3935 320.959 98.6498 321.609 99.6462C322.259 100.643 322.8 101.336 323.234 101.726H303.415C303.111 101.422 302.635 100.794 301.985 99.8411C301.378 98.888 300.859 97.7834 300.425 96.5271C299.906 95.0109 299.516 93.4947 299.256 91.9784C299.039 90.4189 298.931 88.5994 298.931 86.5201L303.09 89.3792C301.877 92.2384 299.906 94.7076 297.176 96.787C294.491 98.8231 291.285 100.404 287.559 101.531C283.877 102.614 279.892 103.155 275.603 103.155ZM280.996 88.0796C284.159 88.0796 287.104 87.5164 289.834 86.3901C292.606 85.2205 294.859 83.401 296.592 80.9317C298.324 78.4625 299.191 75.2351 299.191 71.2496V64.2967L304.194 69.1702C301.335 70.2099 298.021 71.0763 294.252 71.7695C290.527 72.4193 286.801 72.9391 283.076 73.329C278.657 73.7622 275.343 74.5203 273.134 75.6033C270.968 76.643 269.885 78.4191 269.885 80.9317C269.885 83.3143 270.816 85.1121 272.679 86.3251C274.541 87.4948 277.314 88.0796 280.996 88.0796Z" fill="#2B2B2B"/>
<path d="M194.339 103.025C189.444 103.025 185.416 102.245 182.253 100.686C179.091 99.083 176.6 96.9387 174.78 94.2528C172.961 91.5669 171.683 88.5778 170.946 85.2855C170.21 81.9931 169.842 78.6574 169.842 75.2785C169.842 73.7189 169.842 72.0727 169.842 70.3399C169.842 68.6071 169.842 66.831 169.842 65.0115V32.7161H189.986V61.8275C189.986 63.3004 189.986 64.7299 189.986 66.1162C189.986 67.5024 189.986 68.7804 189.986 69.95C189.986 72.8525 190.311 75.5167 190.961 77.9427C191.61 80.3686 192.802 82.318 194.534 83.7909C196.311 85.2638 198.823 86.0003 202.072 86.0003C205.235 86.0003 207.92 85.1122 210.13 83.336C212.339 81.5166 214.029 79.1989 215.198 76.3831C216.368 73.5673 216.953 70.6648 216.953 67.6757L222.606 72.2893C222.606 76.6214 221.935 80.6502 220.592 84.3757C219.292 88.1013 217.429 91.372 215.003 94.1878C212.577 96.9603 209.61 99.1263 206.101 100.686C202.635 102.245 198.715 103.025 194.339 103.025ZM216.953 101.726V32.7161H237.097V101.726H216.953Z" fill="#2B2B2B"/>
<path d="M113.025 103.285C107.264 103.285 101.957 101.92 97.1052 99.1913C92.2533 96.4188 88.3545 92.325 85.4087 86.9099C82.4629 81.4949 80.99 74.8235 80.99 66.8959C80.99 59.3148 82.4845 52.8817 85.4736 47.5967C88.5061 42.3116 92.4482 38.3044 97.3001 35.5752C102.195 32.8027 107.437 31.4165 113.025 31.4165C118.484 31.4165 123.466 32.8027 127.971 35.5752C132.52 38.3477 136.159 42.1383 138.888 46.9468C141.617 51.7121 142.982 57.2138 142.982 63.4519C142.982 63.6685 142.982 63.8851 142.982 64.1017C142.982 64.275 142.982 64.47 142.982 64.6866L134.274 64.8165C134.274 64.6866 134.274 64.5566 134.274 64.4266C134.274 64.2534 134.274 64.1017 134.274 63.9718C134.274 60.7227 133.494 57.9286 131.935 55.5893C130.375 53.25 128.361 51.4522 125.892 50.1959C123.422 48.8963 120.845 48.2465 118.159 48.2465C113.697 48.2465 109.841 49.741 106.592 52.7301C103.343 55.6759 101.719 60.3978 101.719 66.8959C101.719 73.394 103.343 78.1809 106.592 81.2566C109.885 84.2891 113.74 85.8053 118.159 85.8053C120.931 85.8053 123.552 85.1555 126.022 83.8559C128.491 82.5129 130.484 80.6285 132 78.2025C133.516 75.7766 134.274 72.9174 134.274 69.6251L142.982 70.08C142.982 76.2748 141.639 81.8848 138.953 86.9099C136.31 91.8918 132.715 95.8773 128.166 98.8664C123.661 101.812 118.614 103.285 113.025 103.285ZM134.274 130.122V32.7161H154.483V130.122H134.274Z" fill="#2B2B2B"/>
<path d="M35.7573 103.285C28.826 103.285 22.7178 102.18 17.4327 99.971C12.191 97.7617 8.07552 94.4694 5.08641 90.094C2.14062 85.6753 0.667725 80.1953 0.667725 73.6539C0.667725 72.9608 0.667725 72.3326 0.667725 71.7694C0.667725 71.163 0.667725 70.5132 0.667725 69.82H20.8767C20.8767 70.4698 20.8767 71.0547 20.8767 71.5745C20.8767 72.051 20.8767 72.6142 20.8767 73.264C20.8767 77.726 22.133 81.1483 24.6456 83.5309C27.1582 85.9136 30.8837 87.1049 35.8223 87.1049C40.8041 87.1049 44.638 86.3251 47.3238 84.7656C50.0097 83.1627 51.3526 80.5418 51.3526 76.9029C51.3526 74.347 50.3346 72.0944 48.2985 70.1449C46.3058 68.1955 43.5766 66.4627 40.111 64.9465C36.6887 63.3869 32.7682 61.9357 28.3495 60.5928C23.5409 59.0766 19.0789 57.0838 14.9635 54.6146C10.848 52.1453 7.53401 49.0046 5.02143 45.1924C2.55216 41.3802 1.31753 36.6799 1.31753 31.0916C1.31753 25.4599 2.81209 20.673 5.8012 16.7308C8.79031 12.7454 12.8624 9.71293 18.0176 7.63355C23.1727 5.51084 28.9993 4.44949 35.4974 4.44949C42.2987 4.44949 48.2985 5.51084 53.497 7.63355C58.7388 9.71293 62.8325 12.8537 65.7783 17.0557C68.7674 21.2145 70.262 26.413 70.262 32.6511C70.262 33.3442 70.262 33.994 70.262 34.6005C70.262 35.1637 70.262 35.8135 70.262 36.5499H50.118C50.118 36.0734 50.118 35.5752 50.118 35.0554C50.118 34.5355 50.118 34.0373 50.118 33.5608C50.118 29.3587 48.9483 26.1314 46.609 23.8787C44.3131 21.626 40.6958 20.4997 35.7573 20.4997C30.992 20.4997 27.2881 21.3661 24.6456 23.0989C22.0464 24.8318 20.7467 27.496 20.7467 31.0916C20.7467 33.6908 21.6781 35.9001 23.5409 37.7196C25.447 39.539 28.0462 41.1636 31.3386 42.5931C34.6309 44.0227 38.3782 45.4523 42.5802 46.8819C48.2985 48.8746 53.2804 51.0839 57.5258 53.5099C61.8145 55.8925 65.1285 58.9033 67.4678 62.5422C69.8071 66.1378 70.9768 70.7298 70.9768 76.3181C70.9768 82.0364 69.5039 86.9099 66.5581 90.9387C63.6123 94.9675 59.4752 98.0433 54.1468 100.166C48.8617 102.245 42.7319 103.285 35.7573 103.285Z" fill="#2B2B2B"/>
</svg>