<svg width="423" height="421" viewBox="0 0 423 421" fill="none" xmlns="http://www.w3.org/2000/svg">
<path d="M325.966 365.215C325.111 396.196 299.737 421 268.566 421H57.4955C25.7542 421 0 395.246 0 363.505V152.529C0 123.829 21.0025 100.071 48.4673 95.7942C48.4673 96.3644 48.4673 96.9346 48.4673 97.4098V308.48C48.4673 340.221 74.2214 365.975 105.963 365.975H317.033C319.979 365.88 323.02 365.69 325.966 365.215Z" fill="url(#paint0_linear_2_94)"/>
<path d="M422.901 57.4955V268.566C422.901 298.121 400.568 322.545 371.773 325.681C373.483 320.264 374.434 314.467 374.434 308.48V97.4097C374.434 65.6684 348.679 39.9142 316.938 39.9142H105.963C103.777 39.9142 101.686 40.0093 99.5957 40.2944C106.913 17.0111 128.676 0 154.43 0H365.5C397.147 0 422.901 25.7542 422.901 57.4955Z" fill="url(#paint1_linear_2_94)"/>
<path d="M176.953 154.525L325.966 237.775L330.528 240.341C347.159 249.654 347.634 273.412 331.288 283.296L325.966 286.527L260.963 325.966L221.809 349.725C214.016 354.476 204.323 354.571 196.53 350.01L154.81 325.966L104.442 296.981L48.4673 264.669V190.923L96.9346 219.528L203.182 282.251C209.17 285.767 216.582 285.767 222.569 282.251L251.174 265.239C258.017 261.153 257.922 251.174 250.984 247.278L98.9302 162.128C98.265 161.748 97.5998 161.367 96.9346 160.892C82.6795 151.104 82.5844 129.816 96.9346 120.028C97.3147 119.743 97.6948 119.458 98.17 119.267L137.989 95.0338L199.856 57.3054C207.839 52.4587 217.913 52.4587 225.896 57.4004L336.895 120.123L374.433 141.315V207.839L336.895 186.837L325.966 180.754L216.677 119.648C211.26 116.511 204.513 116.607 199.191 120.028L176.288 134.568C168.875 139.32 169.255 150.249 176.953 154.525Z" fill="url(#paint2_linear_2_94)"/>
<defs>
<linearGradient id="paint0_linear_2_94" x1="0" y1="258.369" x2="325.938" y2="258.369" gradientUnits="userSpaceOnUse">
<stop stop-color="#1BB0F2"/>
<stop offset="1" stop-color="#5C5DDB"/>
</linearGradient>
<linearGradient id="paint1_linear_2_94" x1="99.5577" y1="162.807" x2="422.901" y2="162.807" gradientUnits="userSpaceOnUse">
<stop stop-color="#1BB0F2"/>
<stop offset="1" stop-color="#5C5DDB"/>
</linearGradient>
<linearGradient id="paint2_linear_2_94" x1="48.4673" y1="203.518" x2="374.433" y2="203.518" gradientUnits="userSpaceOnUse">
<stop stop-color="#5855E4"/>
<stop offset="1" stop-color="#D43DAE"/>
</linearGradient>
</defs>
</svg>