<svg width="24" height="24" viewBox="0 0 24 24" fill="none" xmlns="http://www.w3.org/2000/svg">
<g clip-path="url(#clip0_2711_633)">
<path d="M23.4051 16.6045C23.4231 16.5542 23.4261 16.4998 23.4137 16.4478C23.4012 16.3959 23.3739 16.3487 23.3351 16.312C22.8306 15.6218 22.2863 14.9615 21.7051 14.3345C21.0054 13.5709 20.2536 12.8567 19.4551 12.197V7.7245L21.9551 6.602C22.1436 6.51993 22.3047 6.38564 22.4194 6.21498C22.534 6.04432 22.5975 5.84442 22.6022 5.63888C22.6069 5.43334 22.5528 5.23073 22.4461 5.05498C22.3394 4.87923 22.1847 4.73767 22.0001 4.647L12.8426 0.197004C12.5807 0.067416 12.2924 0 12.0001 0C11.7079 0 11.4196 0.067416 11.1576 0.197004L2.05013 4.6245C1.8639 4.71541 1.70777 4.85796 1.60034 5.03517C1.49291 5.21237 1.43873 5.41674 1.44427 5.62389C1.4498 5.83104 1.51482 6.03223 1.63155 6.20344C1.74829 6.37466 1.91182 6.50868 2.10263 6.5895L4.54013 7.617V12.1945C2.67013 13.7395 0.847628 15.9595 0.607628 16.397C0.586719 16.4322 0.575684 16.4723 0.575684 16.5133C0.575684 16.5542 0.586719 16.5943 0.607628 16.6295C0.607628 16.6295 0.607627 16.647 0.622627 16.657C1.37964 17.6997 2.22438 18.6757 3.14763 19.5745C3.76013 20.177 4.58513 20.8895 4.64763 20.917C8.85013 24.342 12.4126 24.5695 15.6476 23.2145C18.1301 22.177 20.2751 20.3045 22.0526 18.3145C22.5349 17.7701 22.9864 17.1992 23.4051 16.6045ZM19.8126 13.162C18.8063 14.1131 17.886 15.1513 17.0626 16.2645H16.1126C17.0267 14.9593 18.0695 13.7491 19.2251 12.652C19.2251 12.652 19.3501 12.752 19.8126 13.162ZM14.3426 16.2645V15.4895C14.3426 15.4232 14.3163 15.3596 14.2694 15.3127C14.2225 15.2658 14.1589 15.2395 14.0926 15.2395C14.0263 15.2395 13.9627 15.2658 13.9159 15.3127C13.869 15.3596 13.8426 15.4232 13.8426 15.4895V16.2645H12.9476V15.4895C12.9476 15.4232 12.9213 15.3596 12.8744 15.3127C12.8275 15.2658 12.7639 15.2395 12.6976 15.2395C12.6313 15.2395 12.5677 15.2658 12.5209 15.3127C12.474 15.3596 12.4476 15.4232 12.4476 15.4895V16.2645H11.5551V15.4895C11.5551 15.4232 11.5288 15.3596 11.4819 15.3127C11.435 15.2658 11.3714 15.2395 11.3051 15.2395C11.2388 15.2395 11.1752 15.2658 11.1284 15.3127C11.0815 15.3596 11.0551 15.4232 11.0551 15.4895V16.2645H10.1601V15.4895C10.1601 15.4232 10.1338 15.3596 10.0869 15.3127C10.04 15.2658 9.97643 15.2395 9.91013 15.2395C9.84382 15.2395 9.78024 15.2658 9.73335 15.3127C9.68647 15.3596 9.66013 15.4232 9.66013 15.4895V16.2645H8.50013C7.71916 15.1016 6.83203 14.0136 5.85013 13.0145C9.83251 14.4532 14.1927 14.4532 18.1751 13.0145C17.1864 14.0142 16.291 15.102 15.5001 16.2645H14.3426ZM2.29763 6.127C2.19443 6.0843 2.10582 6.01258 2.04255 5.92054C1.97928 5.8285 1.94405 5.72009 1.94114 5.60844C1.93823 5.49679 1.96776 5.38669 2.02615 5.29148C2.08454 5.19627 2.16929 5.12003 2.27013 5.072L11.3776 0.644504C11.5721 0.548777 11.7859 0.498993 12.0026 0.498993C12.2194 0.498993 12.4332 0.548777 12.6276 0.644504L21.7776 5.097C21.8772 5.1452 21.9607 5.22108 22.0182 5.31555C22.0757 5.41002 22.1048 5.51907 22.1019 5.62963C22.099 5.74019 22.0642 5.84756 22.0018 5.93888C21.9395 6.03021 21.8521 6.1016 21.7501 6.1445C18.6976 7.5145 14.3826 9.45201 12.9101 10.112C12.7305 10.1892 12.5369 10.2291 12.3414 10.2291C12.1458 10.2291 11.9523 10.1892 11.7726 10.112L2.29763 6.127ZM7.85013 10.5145C7.75513 10.5145 7.78013 10.5145 7.05763 10.952V8.7795H7.30763L8.65513 9.347V10.952C7.96263 10.5395 7.94763 10.5145 7.85013 10.5145ZM6.56513 8.472C6.55263 8.512 6.56513 8.34451 6.56513 11.397C6.56513 11.4633 6.59147 11.5269 6.63835 11.5738C6.68523 11.6207 6.74882 11.647 6.81513 11.647C6.91263 11.647 6.88513 11.647 7.85763 11.057L8.77263 11.6095C8.81046 11.6325 8.85373 11.6451 8.89801 11.6459C8.94229 11.6467 8.98599 11.6358 9.02465 11.6142C9.0633 11.5925 9.09552 11.5611 9.11801 11.5229C9.1405 11.4847 9.15244 11.4413 9.15263 11.397V9.5595C12.7076 11.0595 11.9926 11.0595 14.5251 9.9395L18.9676 7.9395V12.152C16.7683 13.0945 14.4004 13.5805 12.0076 13.5805C9.61484 13.5805 7.24698 13.0945 5.04763 12.152V7.827L6.56513 8.472ZM4.77263 12.6495C5.93078 13.7444 6.97295 14.9558 7.88263 16.2645H6.93513C6.11202 15.151 5.19174 14.1128 4.18513 13.162C4.38513 12.9895 4.58013 12.812 4.77263 12.6495ZM3.81513 13.502C4.71797 14.353 5.55378 15.2724 6.31513 16.252H1.31513C2.07626 15.2722 2.91209 14.3528 3.81513 13.502ZM1.31513 16.752H6.31513C5.55542 17.7369 4.71951 18.6606 3.81513 19.5145C2.91343 18.6639 2.07924 17.7445 1.32013 16.7645L1.31513 16.752ZM4.18763 19.8695C5.19263 18.9162 6.11277 17.8773 6.93763 16.7645H7.88513C6.97353 18.0717 5.93151 19.2829 4.77513 20.3795C4.61513 20.2395 4.33513 20.0045 4.18763 19.8695ZM5.16263 20.6995C6.23003 19.6868 7.20088 18.5771 8.06263 17.3845L8.50013 16.7645H9.67013V17.542C9.67013 17.6083 9.69647 17.6719 9.74335 17.7188C9.79024 17.7657 9.85382 17.792 9.92013 17.792C9.98643 17.792 10.05 17.7657 10.0969 17.7188C10.1438 17.6719 10.1701 17.6083 10.1701 17.542V16.7645H11.0651V17.542C11.0651 17.6083 11.0915 17.6719 11.1384 17.7188C11.1852 17.7657 11.2488 17.792 11.3151 17.792C11.3814 17.792 11.445 17.7657 11.4919 17.7188C11.5388 17.6719 11.5651 17.6083 11.5651 17.542V16.7645H12.4576V17.542C12.4576 17.6083 12.484 17.6719 12.5309 17.7188C12.5777 17.7657 12.6413 17.792 12.7076 17.792C12.7739 17.792 12.8375 17.7657 12.8844 17.7188C12.9313 17.6719 12.9576 17.6083 12.9576 17.542V16.7645H13.8526V17.542C13.8526 17.6083 13.879 17.6719 13.9259 17.7188C13.9727 17.7657 14.0363 17.792 14.1026 17.792C14.1689 17.792 14.2325 17.7657 14.2794 17.7188C14.3263 17.6719 14.3526 17.6083 14.3526 17.542V16.7645H15.5001C16.4642 18.1952 17.5835 19.5148 18.8376 20.6995C14.1526 24.412 9.85763 24.4145 5.16263 20.6995ZM19.2251 20.377C18.0667 19.2832 17.0245 18.0726 16.1151 16.7645H17.0626C17.8875 17.8773 18.8076 18.9162 19.8126 19.8695C19.8126 19.8695 19.3626 20.2745 19.2251 20.377ZM22.1551 17.422C21.5395 18.1618 20.8808 18.8646 20.1826 19.527C19.2784 18.6729 18.4425 17.7493 17.6826 16.7645H19.2051C19.2714 16.7645 19.335 16.7382 19.3819 16.6913C19.4288 16.6444 19.4551 16.5808 19.4551 16.5145C19.4551 16.4482 19.4288 16.3846 19.3819 16.3377C19.335 16.2908 19.2714 16.2645 19.2051 16.2645H17.6876C18.4488 15.2847 19.2846 14.3653 20.1876 13.5145C21.0938 14.3622 21.9298 15.2819 22.6876 16.2645H21.3651C21.2988 16.2645 21.2352 16.2908 21.1884 16.3377C21.1415 16.3846 21.1151 16.4482 21.1151 16.5145C21.1151 16.5808 21.1415 16.6444 21.1884 16.6913C21.2352 16.7382 21.2988 16.7645 21.3651 16.7645H22.6801C22.4676 17.042 22.3976 17.127 22.1551 17.422Z" fill="#94A3B8"/>
</g>
<defs>
<clipPath id="clip0_2711_633">
<rect width="24" height="24" fill="white"/>
</clipPath>
</defs>
</svg>
