<svg width="24" height="24" viewBox="0 0 24 24" fill="none" xmlns="http://www.w3.org/2000/svg">
<g clip-path="url(#clip0_2746_1074)">
<path d="M20.8814 10.8395C20.8419 10.6289 20.7768 10.4239 20.6876 10.2291C20.8522 6.19366 17.9064 2.41657 13.3106 2.04782C13.1856 2.03741 12.8501 2.02491 12.6439 2.03324C11.5974 2.05646 10.5661 2.28801 9.61013 2.71436C8.65417 3.14071 7.79277 3.75331 7.07627 4.51636C6.35977 5.27942 5.80253 6.17762 5.43712 7.15849C5.07171 8.13936 4.90545 9.18322 4.94806 10.2291C4.86647 10.4093 4.80499 10.5979 4.76473 10.7916C4.42931 10.7666 4.12306 10.7562 3.85223 10.7541C3.60826 10.7507 3.36608 10.7963 3.14 10.888C2.91391 10.9798 2.7085 11.1159 2.53587 11.2883C2.36324 11.4607 2.2269 11.666 2.13489 11.892C2.04288 12.118 1.99706 12.3601 2.00015 12.6041C2.00189 14.0696 2.24906 15.5244 2.7314 16.9082C2.734 16.916 2.73826 16.9231 2.7439 16.9291C3.55015 19.0707 4.90431 20.4207 7.01473 21.2145C7.28556 21.3957 9.32515 21.9687 11.3897 21.9687C11.6308 21.9681 11.8694 21.9199 12.0918 21.8268C12.3142 21.7338 12.516 21.5976 12.6856 21.4263C12.8552 21.2549 12.9893 21.0518 13.0801 20.8284C13.1709 20.6051 13.2167 20.366 13.2147 20.1249C13.2079 19.5509 13.1683 18.9777 13.096 18.4082H16.0606C16.7782 18.4104 17.4864 18.2445 18.1285 17.924C18.7706 17.6035 19.3288 17.1372 19.7585 16.5624H20.346C20.6541 16.5611 20.9511 16.4473 21.1813 16.2425C21.4115 16.0376 21.5589 15.7558 21.596 15.4499L22.0001 12.2499C22.0204 12.0837 22.0075 11.915 21.9621 11.7538C21.9167 11.5926 21.8397 11.442 21.7356 11.3108C21.6315 11.1796 21.5024 11.0704 21.3558 10.9895C21.2092 10.9085 21.0479 10.8576 20.8814 10.8395ZM16.0606 17.9832H13.0418C13.0251 17.8624 12.996 17.6957 12.9835 17.627H14.9168C14.9721 17.627 15.0251 17.605 15.0641 17.566C15.1032 17.5269 15.1251 17.4739 15.1251 17.4187V14.0312C15.1251 13.9759 15.1032 13.9229 15.0641 13.8838C15.0251 13.8448 14.9721 13.8228 14.9168 13.8228H11.4126C11.3231 13.702 11.2272 13.5812 11.1251 13.4666H19.771C19.8228 13.4668 19.8729 13.4478 19.9114 13.4131C19.9499 13.3784 19.9741 13.3306 19.9793 13.2791C20.1876 11.3228 20.1668 11.3895 20.1585 11.2478C20.1313 10.7879 19.9475 10.3512 19.6376 10.0103C18.871 9.17699 17.9439 9.38532 17.796 9.32907C17.8272 9.34574 18.046 9.32907 14.5522 9.32907V8.98324H18.1251C18.4597 8.98295 18.7905 9.05291 19.0963 9.18859C19.4021 9.32427 19.676 9.52264 19.9003 9.77087C20.1246 10.0191 20.2942 10.3116 20.3983 10.6296C20.5023 10.9475 20.5384 11.2838 20.5043 11.6166C20.2335 14.3249 20.2501 14.5999 19.9856 15.2874C19.6821 16.0819 19.1441 16.7653 18.443 17.2468C17.742 17.7283 16.911 17.9851 16.0606 17.9832ZM12.7981 20.1249C12.8034 20.4325 12.7059 20.7332 12.521 20.9791L11.2856 19.7437C12.7772 18.252 12.6085 18.3999 12.6772 18.3999C12.7512 18.9721 12.7915 19.548 12.7981 20.1249ZM11.3751 21.552C10.7849 21.545 10.1957 21.5026 9.61056 21.4249L10.9981 20.0395L12.2335 21.2749C11.9853 21.4586 11.6838 21.5559 11.3751 21.552ZM3.82931 11.1666C4.4251 11.1725 5.01997 11.2149 5.61056 11.2937L4.22515 12.6791C3.9689 12.4332 3.32515 11.7916 2.98973 11.4478C3.23144 11.265 3.52627 11.1663 3.82931 11.1666ZM11.9856 2.49574V8.20824H11.5397C11.4357 8.20819 11.3348 8.2437 11.2537 8.30887C11.1726 8.37404 11.1162 8.46497 11.0939 8.56657H7.50848C7.11572 8.56695 6.7274 8.64965 6.36856 8.80933C6.00973 8.96901 5.68834 9.20213 5.42515 9.49366L5.36473 9.56241C5.44734 7.78949 6.15932 6.10409 7.37281 4.8089C8.58629 3.5137 10.2218 2.69355 11.9856 2.49574ZM20.271 9.56241L20.2106 9.49991C19.9474 9.20838 19.626 8.97526 19.2671 8.81558C18.9083 8.6559 18.52 8.5732 18.1272 8.57282H14.5418C14.5191 8.4714 14.4627 8.38069 14.3817 8.31558C14.3006 8.25047 14.1999 8.21482 14.096 8.21449H13.6501V2.49574C15.4139 2.69355 17.0494 3.5137 18.2629 4.8089C19.4764 6.10409 20.1884 7.78949 20.271 9.56241ZM14.7085 17.2082H12.8939C12.8939 17.1728 12.8022 16.8437 12.796 16.8228C12.5699 15.9088 12.2008 15.0362 11.7022 14.2374H14.7085V17.2082ZM14.1356 9.59991C14.1351 9.61024 14.1307 9.62002 14.1234 9.62734C14.1161 9.63465 14.1063 9.63899 14.096 9.63949H11.5397C11.5294 9.63899 11.5196 9.63465 11.5123 9.62734C11.505 9.62002 11.5007 9.61024 11.5001 9.59991V8.66657C11.5007 8.65644 11.5051 8.6469 11.5125 8.63992C11.5198 8.63294 11.5296 8.62906 11.5397 8.62907H14.096C14.1061 8.62906 14.1159 8.63294 14.1233 8.63992C14.1306 8.6469 14.135 8.65644 14.1356 8.66657V9.59991ZM19.7418 11.2478C19.7564 11.4728 19.7418 11.4562 19.5835 13.0499H18.6231C18.7856 11.3103 18.8189 11.1749 18.7668 10.8312C18.7081 10.4383 18.5423 10.0693 18.2876 9.76449C18.6655 9.80192 19.0182 9.97099 19.284 10.2422C19.5499 10.5133 19.7119 10.8693 19.7418 11.2478ZM10.7272 13.0416C9.74497 12.1469 8.55478 11.5117 7.26473 11.1937C7.25906 11.0694 7.26815 10.9449 7.29181 10.8228H7.30848C7.39393 10.9637 7.5145 11.08 7.65838 11.1604C7.80226 11.2407 7.96453 11.2823 8.12931 11.2812C18.3626 11.2812 17.5939 11.2999 17.7918 11.2395C18.0243 11.1678 18.2204 11.0098 18.3397 10.7978C18.3673 10.9433 18.3771 11.0916 18.3689 11.2395C18.3689 11.2707 18.346 11.4957 18.2022 13.0416H10.7272ZM5.95848 10.9249C6.0293 10.6927 6.151 10.4792 6.31473 10.2999C6.58287 9.99923 6.95519 9.81158 7.3564 9.77491C7.04372 10.1498 6.8681 10.6201 6.85848 11.1082C6.70015 11.0603 6.32723 10.9832 5.95848 10.9249ZM17.9085 9.95616C17.9813 10.0334 18.0299 10.1303 18.0483 10.2349C18.0667 10.3395 18.054 10.4472 18.012 10.5446C17.9699 10.6421 17.9001 10.7251 17.8114 10.7835C17.7227 10.8418 17.6188 10.8728 17.5126 10.8728C7.51265 10.8728 8.07306 10.8937 7.92931 10.8312C7.84852 10.7968 7.77721 10.7435 7.72141 10.6758C7.6656 10.608 7.62697 10.5278 7.60877 10.4419C7.59058 10.3561 7.59336 10.2671 7.61688 10.1825C7.6404 10.0979 7.68397 10.0203 7.7439 9.95616C7.81143 9.87906 7.88684 9.80924 7.9689 9.74782H11.1126C11.1435 9.83419 11.1998 9.90913 11.2743 9.96271C11.3487 10.0163 11.4376 10.046 11.5293 10.0478H14.096C14.1896 10.0476 14.2809 10.0188 14.3576 9.96514C14.4343 9.91151 14.4928 9.83567 14.5251 9.74782H17.6814C17.7604 9.81129 17.8343 9.88095 17.9022 9.95616H17.9085ZM7.50848 8.98324H11.0835V9.33949H7.50848C7.06253 9.33835 6.62854 9.48369 6.27323 9.75319C5.91792 10.0227 5.66094 10.4014 5.54181 10.8312C5.53738 10.8427 5.5339 10.8545 5.5314 10.8666C5.32306 10.8457 5.4064 10.8499 5.2064 10.8312H5.17515C5.29837 10.305 5.59603 9.83597 6.01968 9.50045C6.44334 9.16493 6.96806 8.98264 7.50848 8.98324ZM13.2335 2.46032V8.20616H12.4001V2.46032C12.6777 2.44357 12.956 2.44357 13.2335 2.46032ZM2.41681 12.5999C2.41175 12.2913 2.51002 11.9899 2.69598 11.7437L3.9314 12.9791C3.6939 13.2124 3.96473 12.9437 2.5439 14.3645C2.46426 13.7796 2.42182 13.1902 2.41681 12.5999ZM2.62515 14.8749L6.12098 11.3749C6.65566 11.4662 7.18281 11.5971 7.69806 11.7666L3.01473 16.452C2.84571 15.9368 2.71548 15.4096 2.62515 14.8749ZM8.12931 11.9249C9.98973 12.6478 11.2751 13.8457 12.0439 15.8374L7.08556 20.7957C5.21473 20.0749 3.94181 18.8749 3.17098 16.8832L8.12931 11.9249ZM7.51681 20.9582L12.2085 16.2707C12.3081 16.5788 12.3923 16.8917 12.4606 17.2082C12.4731 17.2562 12.5189 17.4645 12.5481 17.6249C12.5731 17.7228 12.5751 17.7853 12.5876 17.8457L9.0939 21.3457C8.55959 21.2546 8.03254 21.1251 7.51681 20.9582ZM21.5835 12.2082L21.1876 15.3916C21.1625 15.5957 21.0641 15.7837 20.9109 15.9208C20.7577 16.058 20.5599 16.1349 20.3543 16.1374H20.0376C20.3816 15.5593 20.5949 14.9129 20.6626 14.2437C20.9501 11.3957 20.9439 11.5353 20.9356 11.2707C21.1407 11.3186 21.3207 11.4411 21.4405 11.6144C21.5603 11.7877 21.6112 11.9994 21.5835 12.2082Z" fill="#FFFFFF"/>
<path d="M19.8999 14.0519C19.9029 14.0229 19.8996 13.9935 19.8905 13.9658C19.8813 13.9381 19.8664 13.9126 19.8468 13.8909C19.8272 13.8693 19.8032 13.8521 19.7764 13.8404C19.7497 13.8286 19.7208 13.8226 19.6916 13.8228H15.6937C15.6384 13.8228 15.5854 13.8447 15.5464 13.8838C15.5073 13.9228 15.4854 13.9758 15.4854 14.0311V17.4165C15.4854 17.4718 15.5073 17.5248 15.5464 17.5638C15.5854 17.6029 15.6384 17.6248 15.6937 17.6248C16.2416 17.6594 16.7911 17.5887 17.3124 17.4165C18.0273 17.1731 18.6543 16.7239 19.1147 16.1253C19.5751 15.5267 19.8482 14.8053 19.8999 14.0519ZM15.902 14.2394H18.0916C17.8833 16.4373 17.9145 16.5103 17.7499 16.7665C17.1874 17.0837 16.5472 17.2367 15.902 17.2082V14.2394ZM18.5104 14.2394H19.4604C19.3509 15.0679 18.9418 15.8275 18.3104 16.3748C18.3437 16.0311 18.3062 16.4269 18.5104 14.2394Z" fill="#FFFFFF"/>
<path d="M6.67681 15.725L6.51223 15.8896C6.473 15.9288 6.45096 15.982 6.45096 16.0375C6.45096 16.093 6.473 16.1462 6.51223 16.1854C6.55146 16.2247 6.60466 16.2467 6.66014 16.2467C6.71562 16.2467 6.76883 16.2247 6.80806 16.1854L6.97264 16.0209L7.31223 16.3625C7.24647 16.4231 7.18389 16.4871 7.12473 16.5542C7.09393 16.5969 7.08045 16.6497 7.087 16.7019C7.09355 16.7542 7.11965 16.802 7.16004 16.8358C7.20043 16.8696 7.25211 16.8868 7.3047 16.8841C7.35729 16.8813 7.40687 16.8587 7.44348 16.8209L7.60806 16.6563L7.94973 17C7.71431 17.2354 7.78306 17.1709 7.76639 17.1875C7.73806 17.2297 7.72613 17.2808 7.73285 17.3312C7.73958 17.3816 7.7645 17.4278 7.80291 17.4611C7.84133 17.4944 7.89059 17.5125 7.94142 17.512C7.99225 17.5115 8.04115 17.4924 8.07889 17.4584L8.24973 17.2917C8.35426 17.4134 8.47005 17.525 8.59556 17.625C8.63399 17.6431 8.67703 17.649 8.71892 17.6419C8.7608 17.6349 8.79952 17.6152 8.8299 17.5855C8.86027 17.5558 8.88084 17.5175 8.88885 17.4758C8.89686 17.4341 8.89194 17.3909 8.87473 17.3521C8.85806 17.3084 8.85598 17.3146 8.53931 16.9979L8.70181 16.8334C8.72014 16.813 8.73428 16.7892 8.74341 16.7633C8.75255 16.7375 8.7565 16.7101 8.75505 16.6827C8.7536 16.6553 8.74677 16.6285 8.73496 16.6038C8.72314 16.5791 8.70657 16.5569 8.68619 16.5386C8.6658 16.5202 8.64201 16.5061 8.61616 16.497C8.59032 16.4878 8.56293 16.4839 8.53555 16.4853C8.50818 16.4868 8.48136 16.4936 8.45662 16.5054C8.43189 16.5172 8.40972 16.5338 8.39139 16.5542L8.24348 16.7021L7.90389 16.3625L8.06639 16.1979C8.08592 16.1786 8.10142 16.1555 8.112 16.1301C8.12257 16.1048 8.12802 16.0775 8.12802 16.05C8.12802 16.0225 8.12257 15.9953 8.112 15.9699C8.10142 15.9445 8.08592 15.9215 8.06639 15.9021C8.02736 15.8633 7.97456 15.8415 7.91952 15.8415C7.86448 15.8415 7.81168 15.8633 7.77264 15.9021L7.60806 16.0667L7.26639 15.725L7.43098 15.5604C7.46511 15.5206 7.48294 15.4693 7.48092 15.4169C7.47889 15.3645 7.45716 15.3147 7.42005 15.2776C7.38295 15.2405 7.33321 15.2188 7.28078 15.2167C7.22835 15.2147 7.17708 15.2326 7.13723 15.2667L6.97264 15.4313L6.64348 15.1021C6.62419 15.0827 6.60126 15.0672 6.57601 15.0567C6.55076 15.0461 6.52367 15.0406 6.4963 15.0405C6.46892 15.0404 6.4418 15.0457 6.41647 15.0561C6.39114 15.0665 6.36811 15.0818 6.34869 15.1011C6.32926 15.1203 6.31382 15.1433 6.30326 15.1685C6.2927 15.1938 6.28721 15.2209 6.28711 15.2482C6.28701 15.2756 6.29231 15.3027 6.3027 15.3281C6.31308 15.3534 6.32836 15.3764 6.34764 15.3959L6.67681 15.725Z" fill="#FFFFFF"/>
</g>
<defs>
<clipPath id="clip0_2746_1074">
<rect width="20" height="20" fill="white" transform="translate(2 2)"/>
</clipPath>
</defs>
</svg>
