<svg width="24" height="24" viewBox="0 0 24 24" fill="none" xmlns="http://www.w3.org/2000/svg">
<g clip-path="url(#clip0_2711_988)">
<path d="M12 2C6.48607 2 2 6.48607 2 12C2 12.6396 2.06296 13.265 2.17808 13.8717L2.14056 13.9167C2.15855 13.9319 2.17602 13.9447 2.19401 13.9596C3.10751 18.5384 7.15649 22 12 22C17.5139 22 22 17.5139 22 12C22 6.48607 17.5139 2 12 2ZM20.5171 8.48808C20.5037 11.7322 17.6103 12.424 16.3941 12.5707C17.4078 9.07498 17.119 5.71929 16.8975 4.20089C18.5063 5.21513 19.7816 6.71194 20.5171 8.48808ZM16.0197 3.71086C16.1875 4.57812 16.8212 8.48448 15.5893 12.5293C13.2452 11.908 12.9127 10.201 12.469 7.87727C12.1686 6.30311 11.8289 4.53932 10.7488 2.87316C11.1584 2.8174 11.5755 2.78605 12 2.78605C13.4403 2.78605 14.8042 3.11882 16.0197 3.71086ZM9.90523 3.02914C11.0495 4.6457 11.3938 6.43699 11.697 8.02477C12.1375 10.332 12.5568 12.5162 15.3395 13.2787C15.1342 13.8442 14.8901 14.4088 14.6002 14.9648C8.82881 12.1691 5.28759 7.67787 4.51773 6.63331C5.79947 4.85076 7.70125 3.54358 9.90523 3.02914ZM4.06033 7.33225C5.1383 8.74196 8.67001 12.9485 14.2158 15.6504C13.9989 16.012 13.7602 16.3676 13.4991 16.7161C11.981 15.9621 10.5551 15.8455 9.1734 15.7329C7.26159 15.5769 5.28605 15.4102 2.9153 13.5305C2.83153 13.0325 2.7858 12.5216 2.7858 12C2.78605 10.2974 3.25193 8.70238 4.06033 7.33225ZM3.19411 14.7133C5.40708 16.2114 7.28549 16.3676 9.10967 16.5167C10.4235 16.6238 11.6721 16.7274 12.995 17.3472C11.9291 18.5945 10.5376 19.7202 8.73168 20.6129C6.09395 19.6084 4.03207 17.4276 3.19411 14.7133ZM9.79088 20.9446C11.4308 20.0288 12.7151 18.9216 13.7181 17.7136C14.1392 17.9464 14.9646 18.4899 15.1797 19.2723C15.3074 19.7361 15.1915 20.2375 14.8425 20.7635C13.947 21.0546 12.9921 21.2142 12.0003 21.2142C11.2386 21.2139 10.4988 21.1194 9.79088 20.9446ZM15.9105 20.3405C16.0408 19.9075 16.0523 19.4794 15.9364 19.0601C15.662 18.0674 14.7549 17.4068 14.2073 17.0874C14.4715 16.7268 14.7128 16.3594 14.9327 15.9865C16.3085 16.6038 17.7997 17.1213 19.4006 17.4821C18.4953 18.7008 17.2968 19.6878 15.9105 20.3405ZM19.8736 16.7813C18.236 16.4365 16.7148 15.9195 15.3151 15.2971C15.6414 14.666 15.9118 14.0246 16.1351 13.3837C16.8253 13.3336 18.7587 13.0757 20.0663 11.7425C20.5055 11.2949 20.8262 10.7697 21.032 10.1761C21.151 10.7658 21.2142 11.3756 21.2142 12C21.2139 13.7497 20.7237 15.3868 19.8736 16.7813Z" fill="#FFFFFF"/>
</g>
<defs>
<clipPath id="clip0_2711_988">
<rect width="20" height="20" fill="white" transform="translate(2 2)"/>
</clipPath>
</defs>
</svg>
